<?xml version="1.0" encoding="utf-8"?>
<!-- Generator: Adobe Illustrator 28.3.0, SVG Export Plug-In . SVG Version: 6.00 Build 0)  -->
<svg version="1.1" id="Capa_1" xmlns="http://www.w3.org/2000/svg" xmlns:xlink="http://www.w3.org/1999/xlink" x="0px" y="0px"
	 viewBox="0 0 80.6 64.9" style="enable-background:new 0 0 80.6 64.9;" xml:space="preserve">
<style type="text/css">
	.st0{fill:#050035;}
	.st1{display:none;fill:#FFFFFF;}
	.st2{display:none;fill:#FFFFFF;stroke:#000000;stroke-width:0.25;stroke-miterlimit:10;}
	.st3{opacity:0.39;}
	.st4{fill:none;stroke:#FAFAFA;stroke-width:0.25;stroke-miterlimit:10;}
	.st5{fill:#FAFAFA;}
</style>
<g id="Capa_2_00000163751083097742900780000016397002046532087716_">
	<circle class="st0" cx="40.3" cy="32.9" r="31.5"/>
	<g id="Capa_3">
		<path class="st1" d="M24.5,23.9l0.1,2.1l-1.9,0.5l-0.5-1.9h0.1C22.3,24.6,24.5,23.9,24.5,23.9z"/>
		<path class="st1" d="M37.5,39.5l0.2-1.7h5.4l-0.7,1.8c0,0,0,0.1,0,0c-0.3,0.1-0.6,0.1-0.8,0.2c-0.1,0-0.1,0.1-0.1,0.1
			c0,0.1-0.1,0.3,0,0.4"/>
		<path class="st1" d="M45.2,23.8c-0.2-0.1-0.4-0.1-0.6-0.1h-0.5l-2-0.2l0.6,6.6l1.9-3.1"/>
		<polygon class="st1" points="61.3,23.6 63.7,23.9 63.9,26.6 61.5,27.2 		"/>
		<path class="st2" d="M14.4,16.9h1.5l2.4-0.6l0.4,0.7l1.3-0.3l0.1,0.2l1.4-0.2l0.4,0.8h0.6v-0.2l1.1-0.3l0.3,0.3L24,17l1.9-0.4
			L25.7,16l-0.2-0.6l3.5-0.9l0.1,0.5l0.1,0.5l0.4,0.3l0.3-0.1l0.3,0.3l0.2-0.2l-0.3-0.4l1.4-0.4l0.2,0.1l0.4-0.2l2-0.5l1.4-0.4
			l0.2,0.2V14l3.8-0.9l0.1,0.3l0.2,0.3l0.1,0.5l0.1,0.3V16l0.1,0.8l0.6-1.9l0.2,0.3h0.7v-0.8l2.2-0.1l0.1,0.2h0.5l-0.1,0.6l0.2,0.2
			l0.1-0.1h1l0.2,0.4l0.4-0.7l0.3-0.1l0.8,0.1l0.2,0.2l0.2-0.2l0.5,0.3h0.5V15l0.6,0.1h0.3l0.5,0.1l0.4,0.4l0.1-0.2l1.2,0.3V16h0.7
			l0.3-0.2l0.3-0.8l1.7,0.3l-0.3,0.4l-0.3,0.5l0.9,0.2l0.8,0.1v0.2l0.3,0.1l0.1,0.1l0.1-0.2l1.2,0.3l0.1,0.1H58l0.4,0.1l0.7,0.1
			l0.1,0.2h0.4c0,0,0.1-0.3,0.3-0.3l0.1-0.3l0.2-0.3l1.3,0.2l0.1-0.3l0.3-0.3l2.1,0.4l0.1,0.1h0.4l0.2-0.1c0,0,0.4,0.2,0.8-0.1V17
			l-0.3,0.3l0.2,0.9l-0.8,1.1l-0.4,0.6L64,20v1.1l0.2,0.3l-0.1,1.8l-0.2,0.2l0.2,0.1V24l-0.6,0.5l-2.1,0.4c0,0-0.6-0.9-1.6,0.2
			l-4-0.2l-0.3-0.4l-0.3,0.1L54.8,25l-3.6,0.1h-3.7L45,25l-2.5-0.2l-0.1,2l-6.8,0.1c0,0,0.3-0.5,0.3-0.7s-1.8-1.4-1.9-1.3
			s-5,0.7-5,0.7l-1.2-0.1l-3.1-0.2h-2.2c0,0-2.1-0.8-4-0.3c-1.9,0.6-0.2-0.2-0.2-0.2l-1.6,0.1l-0.6-0.8L16,23.4l0.3-0.1v-0.7
			L16,22.4v-0.6l0.2-0.2L16,21.3l0.2-0.2l-0.1-0.8l-1.2-1.7L14.6,18c0,0-0.5,0.2-0.7,0l0.1-0.2h0.3v-0.3l0.1-0.2L14.4,16.9
			L14.4,16.9z"/>
		<path class="st2" d="M16.2,40L16,40.3l-0.1,0.3h-1.6l-0.1,0.9l-1-0.1l-0.1,1h-0.8v1.1l55.9-0.3V42h-0.9v-1.1h-0.7v-0.7l-1.7-0.1
			l-0.1-0.6l-0.1-0.3l-0.3-5.7l-0.1-1.8l-0.4-5.5L61.5,25v6.5l0.1,2l-0.1,3.2c0,0,0.1,2.8-0.3,2.8c0,0-1.9-0.3-2.4-0.1
			c0,0-0.4-1.4-0.1-3l0.1-4.8l-0.2-6.4L55.2,24l-0.3,0.6l0.8,0.3l-0.2,0.8l0.5,0.9L55.8,30l-0.1,2.9l0.1,2.6V39l0.2,0.4
			c0,0-3.7,0.3-3.8,0.3l-0.1-5.9l-0.2-2.6l-0.1-0.4l-0.1-4.1l-0.2-2.2l-3.6,0.3H45c0,0,2.4,0.7,2.4,0.9c0,0,0,0.5,0.4,0.6l0.4,0.2
			l0.1,3.5l-0.1,4.8l-0.1,0.8v1.5L48,39.9h-1.5L46.2,40l-0.3-0.3l-0.7-0.1l-0.1-0.2l0.2-2.4l-0.1-0.2l0.1-1.7L45,34.6l0.3-0.6
			l-0.4-6.3l-2.1-3.1l-0.3,2.5l-0.1,4c0,0-0.2,0.8-0.2,2.4v4.8h-0.9c0,0-1.4,0.2-1.7,0h-0.9L38.3,38l0.1-1.9c0,0-0.3-1.7,0.1-2.1
			l-0.7-2.9l0.1-0.6v-2.4L35.8,24c0,0-1.5-0.2-1.3,1.3c0,0-0.1,0.4,0.8,0.8c0,0,1-0.1,0.5,0.9c0,0,0.1,0.3,0.1,0.7v0.9l-0.3,1.2
			l0.1,2.6v0.9l-0.2,4.2v1.8h-0.7l-0.5,0.3L32.2,39L32,38.3V36l0.1-3.5l0.2-7.3l-3.1-0.6L29,25.5l-0.1,2.9l-0.1,1.9l0.1,1.6
			l-0.1,2.3l-0.1,1.1l0.1,0.9l-0.1,1l-0.1,1.1v1.3h-2.8l-0.3-0.1v-0.4c0,0-0.5-0.1-0.4-0.9l-0.3-0.8V26.5l0.1-0.5
			c0,0-0.5,0.4-0.1-0.8l-2.3,0.6L22.2,34l-0.1,0.4L22,39.7l-0.3,0.1c0,0-1,0.5-1.2-0.1h-0.7l-0.5-0.1l-0.1-1.4v-1.1l0.1-5.1
			l-0.2-4.4l0.1-1.1c0,0-0.6-0.1-0.1-0.8l0.2-1.5l-2.5,0.7l-0.3,8.7l-0.1,0.9l-0.2,4.3C16.2,38.8,16.2,40,16.2,40z"/>
		<g class="st3">
			<path class="st4" d="M12.2,43.6h56v-1.2L67.3,42"/>
			<path class="st4" d="M66.4,40.9c-0.1,0-0.2,0.1-0.3,0.1H28.2c-0.9,0-1.9,0-2.8,0.1h-1.3c-0.8,0-1.6,0-2.3,0.1
				c-0.5,0-0.9,0-1.4,0.1h-1c-0.8,0-1.7,0-2.5,0.1c-0.8,0-1.5,0-2.3,0.1h-0.3c-0.1-0.1-0.2-0.1-0.2-0.1h-1c0,0.3-0.1,0.7,0,1v0.1"/>
			<path class="st4" d="M61.6,24.6C61.6,24.6,61.6,24.6,61.6,24.6c0.4-0.1,0.7-0.2,1-0.2h1c0.1,0,0.1,0,0.1,0.1
				c0,0.6,0.1,1.1,0.1,1.7c0.1,0.8,0.1,1.7,0.2,2.5c0,0.6,0.1,1.1,0.1,1.7s0.1,1.1,0.1,1.7v0.8c0,0.7,0.1,1.5,0.1,2.2v1.4
				c0,0.9,0.1,1.7,0.2,2.6v0.3"/>
			<path class="st4" d="M55.9,29.4C55.9,29.4,55.9,29.4,55.9,29.4c-0.1-0.2-0.1-0.3-0.1-0.4v-4.3c0.6-0.2,1.1-0.2,1.7-0.1v0.5
				c0,1,0,2,0.1,2.9c0,0.5,0.1,1,0.1,1.4V30c0,0.6,0,1.1,0.1,1.7V35c0,0.8,0,1.6,0.1,2.3c0,0.3,0,0.6,0.1,0.8"/>
			<path class="st4" d="M57.4,24.6c0,0.6,0.1,1.2,0.1,1.8v4c0,0.3,0.1,0.6,0.1,1c0,0.3,0.1,0.6,0.1,0.9v5.8"/>
			<path class="st4" d="M57.1,24.6v1.5c0,0.7,0,1.3,0.1,2v11.2"/>
			<path class="st4" d="M56.6,24.6v2c0,0.7,0,1.4,0.1,2.1c0,0.6,0.1,1.2,0.1,1.8c0,1.3,0.1,2.6,0.1,3.9v4.9"/>
			<path class="st4" d="M42.5,24.8c0,0.1,0,0.3-0.1,0.4v6.6c-0.1,0.9-0.1,1.9-0.1,2.8V36c-0.1,0.2-0.1,0.3,0,0.5
				c0.1,0.1,0.1,0.3,0.1,0.4v2.6"/>
			<path class="st4" d="M26.6,25.4h0.3c0-0.2,0-0.3,0.1-0.5h2.1v1.6c0,0.5,0,1-0.1,1.5v9.9c0,0.5,0,1-0.1,1.5v0.2"/>
			<path class="st4" d="M66.6,40.8v-0.7h-5.7c-1.3,0-2.5,0-3.8,0.1H44.4c-0.5,0-0.9,0.1-1.4,0c-0.5,0-1,0-1.5-0.1H26.3
				c-0.6,0-1.2,0-1.8,0.1h-4.3c-0.6,0-1.3,0-1.9,0.1h-1.6"/>
			<path class="st4" d="M16.6,24.8v4.9c0,0.9-0.1,1.8-0.1,2.7v1c0,0.5-0.1,0.9-0.1,1.4v0.8c0,0.8,0,1.6-0.1,2.4v1.5
				c0.1,0.3-0.1,0.5-0.3,0.7l0,0c0.1,0,0.1,0.1,0.2,0.1h0.4"/>
			<path class="st4" d="M31.7,32.8c0-0.1-0.1-0.2-0.1-0.3v-1c-0.1-0.7,0-1.4-0.1-2.2c0-0.6-0.1-1.2-0.1-1.8c0-0.4-0.1-0.9-0.1-1.3
				c0-0.3,0-0.6-0.1-0.9c0-0.2-0.1-0.3,0-0.5c0-0.1,0.1-0.2,0.2-0.3l0.1-0.1c0.2-0.2,0.3-0.4,0.1-0.7c-0.1,0-0.3,0-0.5-0.1
				c-0.1,0-0.1-0.1-0.1-0.1l-0.1-0.1"/>
			<path class="st4" d="M49.9,26.8v0.6c0,0.8,0,1.5,0.1,2.3v6.4"/>
			<path class="st4" d="M50.3,27v2.7c0,0.7,0.1,1.5,0.1,2.2v3.7"/>
			<path class="st4" d="M58.3,28C58.4,28,58.4,28.1,58.3,28c0.1,0.3,0.1,0.6,0.1,0.9c0,0.6,0.1,1.2,0.1,1.7v6.1"/>
			<path class="st4" d="M48.1,26.3C48.1,26.4,48.1,26.4,48.1,26.3c0,0.6,0.1,1.1,0.1,1.6v6.6"/>
			<path class="st4" d="M43.2,24.8V27c0,0.5,0,1-0.1,1.4v4.3"/>
			<path class="st4" d="M49.3,24.5c-0.1,0.4-0.1,0.8-0.2,1.3c0,0.4-0.1,0.7-0.1,1.1c0,0.5-0.1,0.9-0.1,1.4v4.3"/>
			<path class="st4" d="M56.5,30.9v0.6c0,1.1,0.1,2.1,0.1,3.2v2.5c0,0.4,0,0.8,0.1,1.2v0.3c0,0.1,0,0.2,0.1,0.3"/>
			<path class="st4" d="M43,24.9v5.9c0,0.5,0,1-0.1,1.5v0.2"/>
			<path class="st4" d="M29.5,24.8v0.4c0.2,0,0.4,0.1,0.6,0.1c0,0.1,0.1,0.2-0.1,0.3v4c0,0.5-0.1,1-0.1,1.5V33"/>
			<path class="st4" d="M58.2,31.8C58.2,31.9,58.2,31.9,58.2,31.8c0,0.7,0.1,1.2,0.1,1.8c0,0.5,0.1,1.1,0.1,1.6v3.9"/>
			<path class="st4" d="M24,24.9v6.2c0,0.5,0,0.9,0.1,1.4v0.1"/>
			<path class="st4" d="M36.6,25.2v2.7c0,0.4-0.1,0.8-0.1,1.3v3"/>
			<path class="st4" d="M44.8,26.5v0.9c0,0.5,0.1,0.9,0.1,1.4c0,0.4,0,0.8,0.1,1.2c0,0.6,0.1,1.3,0.1,1.9V32c0,0.6,0,1.1,0.1,1.7"/>
			<path class="st4" d="M18.9,26.6c0,0.7,0.1,1.3,0.1,2c0,0.6,0.1,1.3,0.1,1.9c0,0.5,0,1,0.1,1.5v1.3"/>
			<path class="st4" d="M36.8,25.3v4.2c0,0.5,0,1-0.1,1.4v0.9"/>
			<path class="st4" d="M63.5,26.1v1c0,0.5,0.1,1.1,0.1,1.6s0.1,1.1,0.1,1.6v1c0,0.7,0,1.5,0.1,2.2v5.6"/>
			<path class="st4" d="M63,24.6c0,0.8,0,1.5,0.2,2.3c0,0.4,0.1,0.7,0.1,1.1c0,0.7,0,1.5,0.1,2.2v2.5c0,0.6,0,1.3,0.1,1.9v2.8"/>
			<path class="st4" d="M62.6,24.5L62.6,24.5v1.2c0,0.4,0.1,0.7,0.1,1.1c0,0.2,0,0.4,0.1,0.7v1.1c0,0.6,0.1,1.2,0.1,1.9v2.1
				c0,0.7,0,1.3,0.1,2c0,0.9,0.1,1.7,0.1,2.6c0,0.4,0,0.8-0.1,1.2v0.4"/>
			<path class="st4" d="M29.6,25.5c0,0.5-0.1,1-0.1,1.6c0,0.2,0,0.3,0.1,0.5v8.3c0,0.4,0,0.8-0.1,1.2v2.4"/>
			<path class="st4" d="M35.7,32.8v4.6c0,0.5-0.1,1-0.1,1.5v0.2"/>
			<path class="st4" d="M23.5,28.5L23.5,28.5c0.1,0.6,0.1,1.1,0.1,1.6v4.3"/>
			<path class="st4" d="M22.1,28.5v2.4c0.1,0.2,0,0.5,0,0.7c0,0.3-0.1,0.6-0.1,0.9v1.4c0,0,0.1,0.1,0.2,0.1l0,0
				c0,0.2-0.1,0.4-0.1,0.6v5.1"/>
			<path class="st4" d="M23.1,25.8C23.1,25.8,23.1,25.9,23.1,25.8v3.6l0,0c0.2,0.2,0.1,0.5,0.1,0.8V33c0,0.6-0.1,1.3-0.1,1.9
				c0,0.1,0,0.3,0.2,0.3h0.1v-0.1"/>
			<path class="st4" d="M62.5,32.4v6"/>
			<path class="st4" d="M61.4,30.8v2.3c0,0.7,0.1,1.4,0.1,2.1v1.2"/>
			<path class="st4" d="M22.8,34.1v2.4c0,0.6-0.1,1.3-0.1,1.9l0,0v1.2"/>
			<path class="st4" d="M37.9,25.8v5.4"/>
			<path class="st4" d="M36.3,25.2v7.1"/>
			<path class="st4" d="M43.5,24.4v2.4c0,0.8,0,1.6,0.1,2.4v0.4c0,0.1,0.1,0.1,0.1,0.2"/>
			<path class="st4" d="M17.2,24.8c0,0.3-0.1,0.7-0.1,1v2.4c0,0.4,0,0.9-0.1,1.3c0,0.3,0,0.6-0.1,0.8v0.5"/>
			<path class="st4" d="M56.3,30.9v7.6"/>
			<path class="st4" d="M22.8,28.4c0,0.2,0,0.4-0.1,0.6c-0.1,0.8-0.1,1.6-0.1,2.4v2.1"/>
			<path class="st4" d="M56.3,24.7v5.1"/>
			<path class="st4" d="M42.8,25c0,0.3-0.1,0.7-0.1,1l0,0c0,0.4-0.1,0.9-0.1,1.3c0,0.5,0.1,0.9,0.1,1.4v3.6"/>
			<path class="st4" d="M31.9,28v2.2c0,0.5-0.1,1-0.1,1.5v0.2c0,0.4,0,0.8-0.1,1.2"/>
			<path class="st4" d="M35.4,23.9c0-0.1-0.1-0.3-0.1-0.4v-0.1h-4.4"/>
			<path class="st4" d="M17.4,26.8c0,0.3-0.1,0.6-0.1,0.9v1.7c0,0.5,0,0.9-0.1,1.4c0,0.2,0,0.5-0.1,0.7"/>
			<path class="st4" d="M42.3,30.9c-0.1,0.2-0.1,0.4-0.1,0.7v0.5c0,0.8-0.1,1.6-0.1,2.4v2"/>
			<path class="st4" d="M18.3,31c0,0.1,0.1,0.3,0.1,0.4v4.9"/>
			<path class="st4" d="M17.1,31.8v8.1"/>
			<path class="st4" d="M17.1,34.6h-0.5v3.6c0,0.5,0,1-0.1,1.4V40"/>
			<path class="st4" d="M51.7,29.8v0.7c0,0.1,0,0.3,0.1,0.4c0.1,0.2,0.1,0.5,0.1,0.7c0.1,0.6,0.1,1.2,0.1,1.8v1"/>
			<path class="st4" d="M43.2,33.9v4.3"/>
			<path class="st4" d="M49.3,28L49.3,28c0,1.2,0,2.2,0.1,3.3v0.8"/>
			<path class="st4" d="M17.6,26.8v4.3"/>
			<path class="st4" d="M22.5,21.5c-0.2,0-0.4,0-0.6-0.1c-0.4,0-0.7,0-1.1-0.1c-0.1,0-0.2,0-0.2,0.1c-0.1,0.2-0.3,0.1-0.4,0.1h-0.9
				c-0.2-0.2-0.4-0.2-0.6-0.2h-1.3c0,0.1-0.1,0.2-0.1,0.2H16"/>
			<path class="st4" d="M16.7,35.6v1.3c0,0.9,0,1.7-0.1,2.6v0.2"/>
			<path class="st4" d="M51.7,24.3c-0.2-0.2-0.4-0.4-0.6-0.5c0,0-0.1-0.1-0.2-0.1h-2.1v-0.5h-3.5c0,0.2-0.1,0.4-0.1,0.6"/>
			<path class="st4" d="M17.6,35.4v4.4"/>
			<path class="st4" d="M42.3,26.8h-4"/>
			<path class="st4" d="M48.8,21.3h-1.1c0,0,0,0.1-0.1,0.1h-1c-0.1,0-0.1,0-0.2-0.1c-0.1-0.1-0.2-0.1-0.3-0.1h-1.4"/>
			<path class="st4" d="M30.2,25.5c0,0.6-0.1,1.3-0.1,1.9v5.2c0,0.2,0,0.5-0.1,0.7v0.1"/>
			<path class="st4" d="M35.7,18v-4c1.3-0.3,2.6-0.6,3.8-0.9c0,0.1,0.1,0.2,0.1,0.3s0,0.3,0.2,0.3c0,0.2,0,0.4,0.1,0.6
				s0.1,0.4,0.1,0.5v1.6c0,0.2,0.1,0.4,0.1,0.7"/>
			<path class="st4" d="M25.1,34.9V38c0,0.4-0.1,0.8-0.1,1.3v0.4"/>
			<path class="st4" d="M18.5,24.7c0.1,0.1,0.2,0.2,0.3,0.3l0.1,0.1c0,0.3,0,0.7-0.1,1v0.2c0,0.6,0,1.3-0.1,1.9v0.6"/>
			<path class="st4" d="M19.2,33.7c0,0.5-0.1,1-0.1,1.5v2.1"/>
			<path class="st4" d="M23.7,25.1v2.7c0,0.3,0,0.5,0.1,0.8l0.1,0.1"/>
			<path class="st4" d="M41.8,26.4h-3.5"/>
			<path class="st4" d="M29,14.6c-0.2,0-0.4,0.1-0.7,0.1c-0.6,0.2-1.3,0.3-1.9,0.5c-0.3,0.1-0.6,0.2-0.9,0.2c0,0.2,0.1,0.4,0.1,0.6
				c0.1,0,0.3-0.1,0.4-0.1c0.5-0.1,0.9-0.3,1.4-0.4c0.4-0.1,0.9-0.2,1.3-0.3c0.1,0,0.3-0.1,0.4-0.1"/>
			<path class="st4" d="M55.7,23c-0.3,0.1-0.5,0.1-0.8,0.2c-0.2,0.1-0.4,0-0.5,0.1h-2.2"/>
			<path class="st4" d="M52,34.3v3.5"/>
			<path class="st4" d="M16.1,16.9C16,17,15.8,17,15.6,17c-0.3,0.1-0.5,0.2-0.8,0.2c-0.2,0-0.3,0.1-0.5,0.1v-0.5h1.6
				c0.8-0.1,1.5-0.4,2.2-0.5c0.1,0,0.1,0,0.2-0.1c0.1,0.3,0.4,0.4,0.4,0.7c-0.1,0-0.2,0-0.3,0.1l0,0c-0.2,0-0.3,0-0.5,0.1
				c-0.8,0.2-1.6,0.4-2.4,0.7c-0.2,0.1-0.3,0.1-0.5,0.2"/>
			<path class="st4" d="M18,31.9v4.9"/>
			<path class="st4" d="M18.6,25.4c0,1.1,0,2.1,0.1,3.2v0.2"/>
			<path class="st4" d="M44.1,36v3.4"/>
			<path class="st4" d="M57.7,24.6c0.1,0,0.3,0.1,0.5,0.1c0,0.3,0.1,0.5,0.1,0.8c0,0.6,0.1,1.1,0.1,1.7v0.7"/>
			<path class="st4" d="M41.7,22.8C41.7,22.8,41.7,22.7,41.7,22.8l-0.1-0.1C41.5,23,41.2,23,41,23.1h-0.1c-0.3,0.2-0.7,0.2-1,0.1
				h-1.5"/>
			<path class="st4" d="M16.9,31.2v3.4"/>
			<path class="st4" d="M33.7,14.5v3.4h0.2v-0.1"/>
			<path class="st4" d="M54.2,16.2c0.1,0,0.2,0.1,0.4,0.1c0.4,0.1,0.7,0.1,1.1,0.2h0.2v0.2c0.1,0.1,0.4,0,0.3,0.3l0,0
				c0-0.1,0.1-0.1,0.1-0.2c0.4,0.1,0.8,0.2,1.2,0.3c0.1,0,0.1,0.1,0.1,0.1l0,0c0.4-0.1,0.7,0.1,1,0.1H59c0,0.1,0.1,0.1,0.1,0.2h0.3"
				/>
			<path class="st4" d="M37.6,25.8C37.6,25.8,37.6,25.9,37.6,25.8c0,0.8,0,1.5-0.1,2.2v2.2c0,0.4,0,0.7-0.1,1.1c0,0.1,0,0.1,0.1,0.2
				"/>
			<path class="st4" d="M38.1,32.9C38.1,32.9,38.1,33,38.1,32.9c0,0.2-0.1,0.4-0.1,0.6v2.9"/>
			<path class="st4" d="M41.8,25.2c-0.2-0.1-0.5-0.1-0.7-0.2c-0.3-0.1-0.5-0.1-0.8,0c-0.4,0.1-0.7,0.1-1.1,0.1h-0.8"/>
			<path class="st4" d="M41.4,24v-0.1h-0.2c-0.7,0-1.5,0-2.2-0.1h-3.3c-0.2,0-0.3,0-0.3,0.2c0.1,0.2,0.3,0.3,0.4,0.5h0.1"/>
			<path class="st4" d="M29.9,35.5v2c0.1,0.1,0.3,0.1,0.4,0.2v0.8"/>
			<path class="st4" d="M41.9,15.7v0.4h3.9"/>
			<path class="st4" d="M16.7,31.5v0.6c-0.2,0.9-0.2,1.7-0.2,2.5v0.1"/>
			<path class="st4" d="M24.8,30.8c0,0.7,0,1.3,0.1,2c0,0.4,0.1,0.7,0.1,1.1"/>
			<path class="st4" d="M45.3,23.8c0.1,0,0.3,0.1,0.4,0.1h2.9v0.3h0.2"/>
			<path class="st4" d="M55.2,39.4h-1.9c-0.3,0-0.7,0-1,0.1H52"/>
			<path class="st4" d="M29.4,21.5C29.4,21.5,29.4,21.4,29.4,21.5c-0.3-0.1-0.6-0.1-0.8-0.1h-1.1c-0.1,0-0.2,0-0.2,0.1
				c-0.1,0.1-0.2,0.1-0.3,0.1h-0.9c-0.1-0.2-0.3-0.2-0.5-0.2h-0.7"/>
			<path class="st4" d="M31.8,33c0.1,0.1,0.1,0.1,0.2,0.2c0.1,0.1,0.1,0.3,0.1,0.5v2.4"/>
			<path class="st4" d="M38.3,33v1.3c0,0.2-0.1,0.3,0,0.5c0,0.4,0.1,0.7,0.1,1.1v2c-0.1,0.2,0,0.4,0.3,0.5c0,0.3,0,0.6-0.1,0.8v0.2
				l0,0"/>
			<path class="st4" d="M64.6,17.5c0.2,0,0.4,0.1,0.7,0.2c-0.1,0.1-0.1,0.1-0.1,0.2h-1.4c-0.4,0-0.8,0-1.2-0.1
				c-0.1,0-0.2-0.1-0.3-0.1c-0.2,0.1-0.3,0-0.5,0h-0.3"/>
			<path class="st4" d="M51.4,24.7l0.3-0.3c0.1-0.1,0.1-0.2,0.1-0.3c0,0,0.1-0.1,0.2-0.1l0.1-0.1h3v0.4c0.1,0,0.2,0.1,0.4,0.1
				c0.1,0,0.1,0,0.2,0.1l0.3,0.3"/>
			<path class="st4" d="M44.5,36v3"/>
			<path class="st4" d="M30.5,34.3V36c0,0.4,0,0.9-0.1,1.3"/>
			<path class="st4" d="M37.2,25.6v5.6"/>
			<path class="st4" d="M35.1,24.9h-3"/>
			<path class="st4" d="M34.9,14.5c0,0.3,0,0.6-0.1,0.9c0,0.4,0,0.7-0.1,1.1c0,0.2,0.1,0.4,0.2,0.5c0.1,0.1,0.2,0.2,0.2,0.4h0.1"/>
			<path class="st4" d="M45.2,33.8c-0.1,0.2-0.2,0.3-0.3,0.5l0,0c0,0.1,0.1,0.2,0.1,0.3c0.1,0.2,0.1,0.3,0.1,0.5v0.8
				c0,0.2,0,0.3-0.1,0.5c0,0.1,0.1,0.1,0.1,0.2"/>
			<path class="st4" d="M61.4,24.6v1.2c0,0.7,0.1,1.3,0.1,2v2.8"/>
			<path class="st4" d="M29,18.6c-0.1,0-0.1-0.1-0.2-0.1h-3"/>
			<path class="st4" d="M54.4,21.5h-1.2c0,0-0.1-0.1-0.1-0.2h-1.4"/>
			<path class="st4" d="M50.1,36.7L50.1,36.7v2.8"/>
			<path class="st4" d="M19.3,24.2V24c0.1-0.1,0.2-0.1,0.3-0.2c0.1,0.1,0.2,0.2,0.2,0.3c0.4,0,0.8-0.1,1.2-0.1h0.8
				c0.1,0,0.2,0.1,0.2,0.2c0.1,0.2,0.2,0.5,0.4,0.7v3"/>
			<path class="st4" d="M50.7,29.5v0.9c0,0.6,0.1,1.2,0.1,1.7v0.2"/>
			<path class="st4" d="M23.7,24.3c-0.1,0-0.2,0.1-0.3,0.1c-0.4,0.1-0.6-0.1-0.8-0.3C22.5,24,22.3,24,22.2,24h-0.6v-0.5h-2.4
				c0,0.2,0,0.3,0.1,0.5"/>
			<path class="st4" d="M49.6,36.4c0.1,0.1,0,0.2,0,0.3v2.5"/>
			<path class="st4" d="M55.6,32.7c0,0.3,0,0.5,0.1,0.8c0,0.7,0,1.3,0.1,2"/>
			<path class="st4" d="M34.4,18.4c0.1-0.1,0.2-0.1,0.3-0.1h2.5c0.1,0,0.2,0.1,0.2-0.1"/>
			<path class="st4" d="M23.6,25.4v2.9"/>
			<path class="st4" d="M22.7,24.8v2.9"/>
			<path class="st4" d="M30.1,39.7h-3.2c-0.3,0-0.5,0-0.8,0.1"/>
			<path class="st4" d="M49.7,29.1c0,0.9,0,1.8-0.1,2.7l0,0"/>
			<path class="st4" d="M34.7,24h-2.8"/>
			<path class="st4" d="M61.4,36.6v0.2c0,0.8,0,1.5-0.1,2.3c0,0.1,0,0.1-0.1,0.2"/>
			<path class="st4" d="M43.9,24.5v2.7"/>
			<path class="st4" d="M31.8,33.9v5.5"/>
			<path class="st4" d="M19.7,17.9h-2.6c-0.6,0-1.1,0-1.7,0.1h-0.8"/>
			<path class="st4" d="M30.9,29.3v0.9c0,0.7,0,1.4-0.1,2.1v0.4"/>
			<path class="st4" d="M48.4,29.4c0,0.8,0,1.6-0.1,2.5v0.2"/>
			<path class="st4" d="M44.2,24.8v2.6"/>
			<path class="st4" d="M33.2,14.8v0.6c0,0.5,0,1-0.1,1.5v0.5"/>
			<path class="st4" d="M25.7,16c0.1,0.1,0.1,0.3,0.2,0.5c-0.6,0.1-1.2,0.3-1.9,0.4c0,0.1-0.1,0.2-0.1,0.3l-0.3-0.3
				c-0.4,0.1-0.7,0.2-1.1,0.3v0.2h-0.4c-0.1-0.2-0.3-0.4-0.4-0.6c-0.1-0.1-0.2-0.2-0.3-0.1c-0.4,0.1-0.9,0.1-1.3,0.2"/>
			<path class="st4" d="M48.7,28.6c0,0.8,0,1.5-0.1,2.3v0.3"/>
			<path class="st4" d="M49.1,34.4v1.8c0,0.8,0,1.6-0.1,2.3c0,0.2,0,0.4-0.1,0.6v0.3"/>
			<path class="st4" d="M65.3,17.3c0.1-0.1,0.2-0.2,0.3-0.3v-0.4h-0.2c-0.2,0.1-0.4,0.1-0.6,0c-0.1-0.1-0.2,0-0.2,0.1
				c-0.2-0.1-0.4,0-0.4-0.2c-0.7-0.1-1.4-0.3-2.1-0.4c-0.1,0.1-0.2,0.2-0.3,0.3v0.2c0.1,0,0.3,0.1,0.4,0.1s0.2,0,0.2,0.1
				c0,0,0,0.1,0.1,0.1"/>
			<path class="st4" d="M23.9,29.5v4.4"/>
			<path class="st4" d="M61.9,28.7v2.6"/>
			<path class="st4" d="M48.6,34.4v2.5"/>
			<path class="st4" d="M36.3,32.7c0,0.6-0.1,1.1-0.1,1.7v0.9"/>
			<path class="st4" d="M24.8,27.5v2.6"/>
			<path class="st4" d="M34.8,24.2H34c-0.6,0-1.2,0-1.7,0.1"/>
			<path class="st4" d="M48.9,34.4v2.5"/>
			<path class="st4" d="M48.5,34.4C48.5,34.5,48.5,34.5,48.5,34.4v2.5"/>
			<path class="st4" d="M28.5,24.1C28.3,24,28,24,27.8,23.9s-0.4-0.1-0.7-0.1H25c0,0.1,0,0.1-0.1,0.2"/>
			<path class="st4" d="M43.9,14.6v-0.3c-0.7,0-1.5,0.1-2.2,0.1v0.8H41c-0.1,0-0.1,0-0.1-0.1L40.8,15c-0.1,0.2-0.1,0.3-0.2,0.5
				c-0.1,0.4-0.3,0.8-0.4,1.3c0,0.1-0.1,0.1-0.1,0.1"/>
			<path class="st4" d="M62.4,24.7v1c0,0.5,0,1.1,0.1,1.6c0,0.4,0.1,0.8,0.1,1.2"/>
			<path class="st4" d="M51.6,27.3c0,0.5,0.1,1,0.1,1.5v0.9"/>
			<path class="st4" d="M27.4,23.8c0,0.1-0.1,0.1-0.1,0.2h-1.8c-0.2,0-0.3,0-0.5,0.1"/>
			<path class="st4" d="M42.7,33.8v2.4"/>
			<path class="st4" d="M23,35.6V38"/>
			<path class="st4" d="M48.3,25c-0.1-0.1-0.2-0.1-0.3-0.1h-2.7"/>
			<path class="st4" d="M48,36.6V39"/>
			<path class="st4" d="M19.4,19.4c-0.1,0-0.1,0.1-0.2,0.1c-0.1-0.1-0.1-0.2-0.2-0.3c-0.1,0.1-0.2,0.1-0.2,0.1c-0.4,0-0.8,0-1.2-0.1
				c0,0.1-0.1,0.3-0.1,0.4"/>
			<path class="st4" d="M45.2,37c0,0.3,0,0.6-0.1,0.9c0,0.2,0,0.5-0.1,0.7c0,0.2,0,0.3-0.1,0.5c0,0.1,0.1,0.1,0.1,0.2"/>
			<path class="st4" d="M31.2,34.4v2.4"/>
			<path class="st4" d="M48.1,18.6v-0.8h-2.6"/>
			<path class="st4" d="M42,26.1h-1.2c-0.1-0.2-0.3-0.1-0.4-0.1c-0.6,0-1.3,0-1.9,0.1"/>
			<path class="st4" d="M24.9,24.3c0.1-0.1,0.2-0.2,0.1-0.3c-0.1-0.2-0.1-0.4-0.1-0.6h0.8c0.1-0.1,0.1-0.2,0.2-0.2
				c0.2,0,0.4,0,0.6,0.2c0.1,0.1,0.2,0.1,0.2,0.1c0.6,0,1.1,0,1.7-0.1v0.5H30"/>
			<path class="st4" d="M59.4,18h-0.7c-0.6,0-1.2,0-1.8,0.1l0,0"/>
			<path class="st4" d="M30.9,34.4c0,0.3,0,0.6-0.1,0.9v1.5"/>
			<path class="st4" d="M32.7,15.1v2.3"/>
			<path class="st4" d="M35,25.1h-2.5"/>
			<path class="st4" d="M58,24.7V27"/>
			<path class="st4" d="M44.5,25.1v1.4c0,0.3,0,0.5,0.1,0.8v0.2"/>
			<path class="st4" d="M40.9,24.7h-0.5c-0.5,0-0.9-0.1-1.4-0.1h-0.3"/>
			<path class="st4" d="M43.5,30.3C43.5,30.4,43.5,30.4,43.5,30.3c0,0.8,0,1.5-0.1,2.2"/>
			<path class="st4" d="M44.2,15.2c0-0.2,0-0.3-0.1-0.5c-0.3,0-0.7,0-1-0.1h-1.5"/>
			<path class="st4" d="M60.2,21.4H61c0,0,0.1-0.1,0.1-0.2h1.8c0,0.1,0,0.1,0.1,0.2h1.3"/>
			<path class="st4" d="M43.7,35.9v2.2"/>
			<path class="st4" d="M50.5,37c0,0.6,0,1.3-0.1,1.9v0.2"/>
			<path class="st4" d="M50.8,33.5v2.2"/>
			<path class="st4" d="M49.5,25v2.1"/>
			<path class="st4" d="M58.8,23.7h-3"/>
			<path class="st4" d="M54.3,18.3c0-0.1,0-0.1-0.1-0.1h-0.5c-0.2,0-0.4-0.1-0.5-0.2c-0.1-0.2-0.2-0.2-0.4-0.1h-0.7"/>
			<path class="st4" d="M50.8,17.3c0.3-0.1,0.5,0,0.8,0.1c0.4,0.1,0.7,0.1,1.1,0.2c0.1-0.1,0.2-0.3,0.4-0.4c0.4-0.4,0.8-0.7,1.2-1.1
				c0.2-0.2,0.5-0.5,0.5-0.9c-0.6-0.1-1.1-0.2-1.7-0.3c-0.1,0.3-0.2,0.6-0.3,0.8C52.6,16,52.5,16,52.3,16c-0.1,0-0.2,0.1-0.2-0.1"/>
			<path class="st4" d="M38.1,24.5c-0.2-0.2-0.5-0.2-0.7-0.2c-0.4,0-0.8,0-1.1,0.1c-0.1,0-0.1,0-0.2,0.1"/>
			<path class="st4" d="M34,39.2h-2"/>
			<path class="st4" d="M18.2,24.9v4.2"/>
			<path class="st4" d="M38,18.4h-0.2c0,0.2-0.1,0.2-0.3,0.2c-0.3,0-0.6,0.1-0.9,0.1c-0.2,0-0.3,0-0.5-0.1c-0.1-0.1-0.2-0.1-0.2,0"
				/>
			<path class="st4" d="M62.2,24.7C62.3,24.7,62.3,24.7,62.2,24.7C62.3,24.7,62.3,24.7,62.2,24.7c-0.2,0-0.4,0-0.6,0.1v2.1
				c0,0.1,0,0.3,0.1,0.4"/>
			<path class="st4" d="M62,32.6v2"/>
			<path class="st4" d="M26.8,24.9c-0.6,0-1.2,0-1.8,0.1c-0.1,0-0.1,0-0.1,0.1"/>
			<path class="st4" d="M18,29.2v0.6c0,0.3,0,0.6-0.1,0.9v0.5"/>
			<path class="st4" d="M30.5,25.3v2.1"/>
			<path class="st4" d="M57.8,23.7l0.1,0.1c0.1,0.1,0.3,0.1,0.4,0.1s0.1,0.1,0.1,0.2c-0.1,0.1-0.1,0.2-0.2,0.3
				c-0.2,0-0.4-0.1-0.5-0.1c-0.5,0-1-0.1-1.5,0c-0.1,0-0.2,0-0.2,0.1"/>
			<path class="st4" d="M60.8,23.7c-0.5,0-1.1,0.1-1.6,0.1H59l-0.1,0.1"/>
			<path class="st4" d="M31.2,24.2c-0.3-0.1-0.6-0.2-0.9-0.2s-0.7,0.1-1,0.1c-0.1,0-0.2,0-0.2,0.1"/>
			<path class="st4" d="M58.1,28.5v2"/>
			<path class="st4" d="M33.9,39.6h-2"/>
			<path class="st4" d="M56.5,21.5v-0.1c-0.7,0-1.3,0-2-0.1"/>
			<path class="st4" d="M64.5,18.8c-0.2,0.1-0.2,0.2-0.3,0.3v1.7c0,0.1,0,0.3,0.1,0.4s0.1,0.3,0.1,0.4v1.6c-0.1,0-0.1,0.1-0.2,0.1"
				/>
			<path class="st4" d="M31.1,24.6c-0.4-0.2-0.9-0.2-1.4-0.1c-0.2,0-0.3,0.1-0.4,0.1c0,0,0,0.1-0.1,0.1"/>
			<path class="st4" d="M17,19.4v1.9l0,0"/>
			<path class="st4" d="M19.6,19.3c0,0.2,0,0.4,0.1,0.6v1.3"/>
			<path class="st4" d="M35.2,21.3c-0.4,0-0.8,0-1.3,0.1c-0.1,0-0.2,0.1-0.2,0.2c-0.1,0-0.3,0-0.4-0.1"/>
			<path class="st4" d="M17.6,32.6v2.8"/>
			<path class="st4" d="M61.7,28.9c0,0.5,0,1,0.1,1.4c0,0.2,0,0.3,0.1,0.5"/>
			<path class="st4" d="M62.3,17.1c0.1,0.2,0.3,0.2,0.5,0.2c0.3,0.1,0.7,0.1,1,0.1s0.5,0.1,0.8,0.2c0.1-0.1,0-0.1-0.1-0.1
				c-0.5-0.1-0.9-0.3-1.4-0.4c-0.2-0.1-0.4-0.1-0.6-0.2C62.4,16.9,62.3,16.9,62.3,17.1"/>
			<path class="st4" d="M14.3,17.4c-0.1,0.1,0,0.1,0,0.2c0.1,0.2,0.3,0.3,0.4,0.4c0,0.3,0,0.6,0.2,0.9c0.4,0.4,0.7,0.9,1,1.4
				c0.1,0.1,0.1,0.3,0.1,0.4v0.5l0,0c-0.1,0.1-0.1,0.1-0.2,0.2c0,0.1,0.1,0.2,0.1,0.3s-0.1,0.2-0.1,0.2v0.7c0.1,0.1,0.2,0.1,0.3,0.2
				v0.7"/>
			<path class="st4" d="M58.1,18.6c-0.1-0.1-0.2-0.1-0.3-0.1h-0.5c-0.2,0-0.4-0.1-0.6-0.2l-0.1,0.1c0,0.1,0.1,0.2,0.1,0.3h1.2
				c0.2,0,0.3-0.1,0.4-0.2"/>
			<path class="st4" d="M36,36.8c0.4,0,0.8,0,1.2,0.1h0.7"/>
			<path class="st4" d="M42.9,18.4h3.2"/>
			<path class="st4" d="M44.2,17.7h-2"/>
			<path class="st4" d="M64.1,23.3c-0.1,0.1-0.2,0.1-0.4,0.2c-0.3-0.1-0.6-0.1-0.9-0.1h-0.4c-0.1-0.1-0.3-0.1-0.5,0
				c-0.1,0.1-0.2,0.1-0.3,0.1v0.6"/>
			<path class="st4" d="M27,17c-0.1,0-0.2,0-0.4-0.1L26.5,17c-0.2,0-0.3-0.1-0.5,0c0,0.3,0.2,0.5,0.4,0.6c0.1,0,0.2-0.1,0.3-0.2V17"
				/>
			<path class="st4" d="M41.7,24.2h-0.4c-0.8,0-1.5,0-2.3-0.1h-0.3"/>
			<path class="st4" d="M24.5,21.4h-0.6c-0.1,0-0.1,0-0.1,0.1c-0.1,0.2-0.2,0.2-0.4,0.2h-0.6"/>
			<path class="st4" d="M35.7,14.2c-0.1-0.1-0.1-0.1-0.2-0.2c-0.3,0.1-0.6,0.1-1,0.2c-0.3,0.1-0.6,0.2-0.8,0.3
				c-0.6,0.2-1.2,0.3-1.9,0.5v0.1l0,0c-0.2-0.2-0.3-0.1-0.5-0.1c-0.4,0.1-0.8,0.3-1.2,0.4c0.1,0.1,0.2,0.3,0.3,0.4L30.2,16
				c0-0.1-0.1-0.1-0.1-0.2c-0.1-0.2-0.2-0.2-0.4-0.1h-0.1"/>
			<path class="st4" d="M61.3,18.4v0.3c-0.5,0-0.9,0.1-1.4,0.1v-0.3h1.4"/>
			<path class="st4" d="M32.4,18.3c0.1,0.1,0.2,0.2,0.3,0.2h1.2c0.1,0,0.2,0.1,0.2,0.1c0.2,0.2,0.4,0.2,0.7,0.2h0.8
				c0.1,0,0.2-0.1,0.2-0.2"/>
			<path class="st4" d="M25.8,19.4c0-0.1-0.1-0.2-0.1-0.4v-0.1h1.4c0,0,0.1-0.1,0.1-0.2h0.4c0.1,0.2,0.4,0.2,0.6,0.2s0.5,0,0.7-0.1
				c0-0.3,0.1-0.3,0.3-0.3h1.7c0.4,0,0.7-0.1,1.1-0.1c0.1,0,0.1,0,0.2,0.1c0.1,0,0.1,0.1,0.2,0.1c0.1,0.1,0.3,0.1,0.5,0.1h1v-0.2"/>
			<path class="st4" d="M34.9,23.7h-3"/>
			<path class="st4" d="M49.5,15.4c0-0.2,0-0.3-0.2-0.3h-0.4v0.7c-0.1,0.1-0.3,0.2-0.4,0.2s-0.1,0.1-0.1,0.2v1.4
				c-0.1,0-0.2,0.1-0.3,0.1"/>
			<path class="st4" d="M16.5,40.8c-0.1-0.1-0.2-0.2-0.3-0.2h-0.4c-0.5,0-0.9,0-1.4-0.1h-0.1v1"/>
			<path class="st4" d="M17.4,18.7c0,0.1,0,0.2,0.1,0.3c0.5,0,0.9,0,1.4-0.1c0-0.1-0.1-0.2-0.1-0.3h2c0,0.1,0.1,0.2,0.1,0.3h1.2
				c0.1,0,0.2-0.1,0.2-0.2"/>
			<path class="st4" d="M34.7,23.5h-1.8"/>
			<path class="st4" d="M20.1,19.5v1.8"/>
			<path class="st4" d="M60.1,19.3v1.8"/>
			<path class="st4" d="M51.2,33.9v1.8"/>
			<path class="st4" d="M33.7,19.3V21"/>
			<path class="st4" d="M24.5,24.8c0.1-0.1,0.1-0.2,0.2-0.2c0.1-0.1,0.1-0.1,0.2-0.2c0-0.2-0.1-0.3-0.1-0.5h-1v0.4"/>
			<path class="st4" d="M48.2,39.8c-0.2-0.2-0.4-0.2-0.6-0.2h-1.2c-0.1,0-0.2,0-0.2,0.1c-0.3-0.4-0.7-0.3-1.1-0.3"/>
			<path class="st4" d="M36.4,21c0.2,0.1,0.3,0.2,0.5,0.3c0,0.6-0.1,1.2-0.1,1.8"/>
			<path class="st4" d="M23.8,35.4v0.7c0,0.3,0,0.7-0.1,1"/>
			<path class="st4" d="M47.2,19.3v1.6c0,0,0,0.1-0.1,0.1"/>
			<path class="st4" d="M63.3,19.3V21"/>
			<path class="st4" d="M23.3,35.6v1.7"/>
			<path class="st4" d="M61.1,19.1h-1.3c0,0.3-0.2,0.2-0.4,0.3c0-0.1-0.1-0.1-0.1-0.1h-1.1c-0.1,0-0.2,0.1-0.3,0.2v0.1h-0.2v-0.4"/>
			<path class="st4" d="M59.9,17.8h1.6v0.9h1.3v-0.2"/>
			<path class="st4" d="M45.9,15.7l0.1-0.1c0-0.1-0.1-0.2-0.2-0.4h-1c-0.2,0.1-0.1,0.3,0,0.5c0,0.1,0.1,0.2,0.1,0.3"/>
			<path class="st4" d="M59.7,18.4c-0.1,0.1-0.1,0.2-0.2,0.3c-0.4,0-0.8,0.1-1.2,0.1c-0.1-0.1-0.1-0.3,0.1-0.3"/>
			<path class="st4" d="M25.8,19.4l0.2-0.2c0.1,0,0.2,0,0.3,0.1l0.1,0.1V21"/>
			<path class="st4" d="M56.9,19.3V21"/>
			<path class="st4" d="M50.5,26.7c0,0.4,0.1,0.8,0.1,1.2v0.5"/>
			<path class="st4" d="M29.9,38c0,0.6-0.1,1.1-0.1,1.7"/>
			<path class="st4" d="M37.8,21.4v0.8c0,0.1-0.1,0.2-0.1,0.3c-0.1,0.2-0.2,0.4-0.3,0.6"/>
			<path class="st4" d="M44.4,32.5v2"/>
			<path class="st4" d="M54.4,19.3V21"/>
			<path class="st4" d="M16.5,19.4v1.7"/>
			<path class="st4" d="M44.2,28.9v1.4c0,0.3,0,0.5,0.1,0.8l0,0"/>
			<path class="st4" d="M60.6,19.3V21"/>
			<path class="st4" d="M17.7,24.7v0.4c0,0.4,0,0.8-0.1,1.3"/>
			<path class="st4" d="M51.5,19.4c0,0.1-0.1,0.2-0.1,0.3c0,0.2,0,0.4-0.1,0.6H52"/>
			<path class="st4" d="M33.2,19.4V21"/>
			<path class="st4" d="M35.9,39.2h-1.7c0,0-0.1,0-0.1,0.1"/>
			<path class="st4" d="M42.9,18.1v0.3c-0.2,0.1-0.3,0.3-0.5,0.4c-0.1,0.1-0.2,0.1-0.3,0.1h-0.8v-0.4H40c-0.1,0-0.2,0-0.2-0.1"/>
			<path class="st4" d="M39.6,19.4c0,0.5-0.1,0.9-0.1,1.4c0.1,0.1,0.2,0.1,0.3,0.2"/>
			<path class="st4" d="M63.8,19.3V21"/>
			<path class="st4" d="M34.1,39.7h1.7"/>
			<path class="st4" d="M30.9,17.9h-1.8"/>
			<path class="st4" d="M57.7,21c-0.2,0.2-0.4,0.1-0.6,0.1h-0.3c-0.1,0.1,0,0.2,0,0.2c0.2,0,0.4-0.1,0.6-0.1"/>
			<path class="st4" d="M64.1,19.2H63c-0.1,0-0.2,0.1-0.2,0.2c0,0.2,0,0.1-0.1,0.2c-0.1-0.1-0.1-0.1-0.1-0.2c0-0.1-0.1-0.1-0.1-0.2
				c-0.2,0.1-0.5-0.1-0.7,0.2c-0.3,0-0.6,0-0.9,0.2"/>
			<path class="st4" d="M62.9,19.4V21"/>
			<path class="st4" d="M26.4,19.4c0.1,0,0.3,0,0.4-0.1v0.1c0,0.2,0,0.4-0.1,0.6v1.2"/>
			<path class="st4" d="M52.9,15.4c0.4,0.1,0.8,0.1,1.2,0.2c0.1,0,0.3,0.1,0.4,0.1"/>
			<path class="st4" d="M25.9,19.3c0,0,0.1,0.1,0,0.1c0,0.4,0,0.8-0.1,1.2V21"/>
			<path class="st4" d="M53.1,25.1L53.1,25.1C52.5,25,52,25,51.4,25c0,0.4,0.1,0.8,0.1,1.1"/>
			<path class="st4" d="M64.9,40.1c0-0.2-0.1-0.4-0.1-0.6h-1.7"/>
			<path class="st4" d="M32.3,18.6c0,0.1-0.1,0.2-0.2,0.2c-0.4,0-0.7,0-1.1,0.1c-0.1-0.1-0.2-0.2-0.2-0.3"/>
			<path class="st4" d="M39.6,26v-0.5c0.6,0,1.1,0,1.7,0.1v-0.2h0.4"/>
			<path class="st4" d="M62.5,28.6v1.5"/>
			<path class="st4" d="M61.7,16.8c-0.3,0-0.5-0.1-0.8-0.1c-0.2,0-0.4-0.1-0.6-0.1c0,0-0.1,0.1-0.1,0.2s0,0.3,0.2,0.3
				c0.4,0.1,0.8,0.3,1.2,0.4c0.2,0.1,0.3,0.1,0.5,0.1c0,0,0.1,0,0.1,0.1"/>
			<path class="st4" d="M36.7,32.7c0,0.2-0.1,0.4-0.1,0.6V34c0,0.1,0,0.2,0.1,0.2"/>
			<path class="st4" d="M18,23.9c0.1,0.1,0.2,0.2,0.3,0.3h-0.6c0,0-0.1,0.1-0.1,0.2c-0.3,0-0.6,0-0.9,0.1c0,0-0.1,0-0.1,0.1"/>
			<path class="st4" d="M54,19.3v1.6"/>
			<path class="st4" d="M22.9,31.6v1.6"/>
			<path class="st4" d="M46.4,19.2V21"/>
			<path class="st4" d="M17.9,23.9h-1.5"/>
			<path class="st4" d="M46.3,18.6c0,0-0.1,0-0.1-0.1c-0.1,0.2-0.3,0.2-0.4,0.2H45c-0.1,0-0.3-0.1-0.4-0.1h-0.1c0,0,0,0.1-0.1,0.1
				h-1.3"/>
			<path class="st4" d="M20.4,18.6v0.2c-0.4,0.1-0.9,0-1.3,0.1c0-0.1,0-0.2-0.1-0.3"/>
			<path class="st4" d="M17.4,20.4v-0.6c-0.2-0.1-0.3-0.3-0.5-0.4c-0.3,0.1-0.6,0-0.8,0v1.1"/>
			<path class="st4" d="M44,32.4V34"/>
			<path class="st4" d="M30.4,27.4v5.5"/>
			<path class="st4" d="M20.3,17.3c-0.1-0.2-0.1-0.4-0.2-0.6c-0.2,0-0.4,0.1-0.6,0.1s-0.4,0.1-0.6,0.2h-0.1"/>
			<path class="st4" d="M32.7,19.5c0.1,0.1,0.1,0.2,0.1,0.3v1.3"/>
			<path class="st4" d="M40.5,19.3v1.4c0,0,0,0.1,0.1,0.1"/>
			<path class="st4" d="M41.2,21c0.1,0.2,0.2,0.2,0.4,0.2h1.1"/>
			<path class="st4" d="M48.1,16c-0.2,0-0.4,0-0.6,0.1h-0.9c-0.1,0-0.1,0-0.2,0.1"/>
			<path class="st4" d="M58.4,24.1c0.1-0.1,0.2-0.2,0.3-0.3l0.1-0.1v-0.4c0.1,0,0.2-0.1,0.2-0.1h3.2c0.2,0,0.4,0,0.6,0.1l0,0"/>
			<path class="st4" d="M23,21.8c0.1,0.1,0.2,0.1,0.3,0.2c0,0,0.1,0.1,0.1,0.2v0.9l-0.1,0.1"/>
			<path class="st4" d="M46.8,19.3v1.5"/>
			<path class="st4" d="M63,16.8L63,16.8c0.8,0.2,1.4,0.3,2.1,0.5c0.1,0,0.2,0.1,0.3,0.1v0.9c-0.3,0.4-0.7,0.9-1,1.3
				c-0.1,0.1-0.2,0.2-0.3,0.2"/>
			<path class="st4" d="M52,38.1v1.1c0,0.1,0,0.3,0.1,0.4"/>
			<path class="st4" d="M30.9,24.9c-0.1,0-0.1-0.1-0.2-0.1c-0.3,0-0.6-0.1-0.9-0.1h-0.1c-0.2,0-0.3,0.1-0.5,0.1"/>
			<path class="st4" d="M23.5,19.5c-0.1,0.5-0.1,1-0.1,1.6"/>
			<path class="st4" d="M40.8,18.5v0.3h-1.1"/>
			<path class="st4" d="M14.8,18.7h2.3V19h-1.4c0-0.1-0.1-0.2-0.1-0.3"/>
			<path class="st4" d="M50.8,15.6v-0.2c0.4,0.1,0.8,0.2,1.2,0.3v0.2l0,0c-0.4,0.4-0.8,0.7-1.2,1.1c0,0-0.1,0-0.1,0.1"/>
			<path class="st4" d="M37.2,24.8C37.2,24.8,37.2,24.7,37.2,24.8c-0.3-0.1-0.6-0.1-0.8-0.1c-0.1,0-0.1,0-0.2,0.1
				c-0.1,0.1-0.3,0.2-0.5,0.1h-0.2v0.2c0.1,0.1,0.1,0.3,0,0.5v0.2"/>
			<path class="st4" d="M23,19.6V21"/>
			<path class="st4" d="M17.4,24.7v1.5"/>
			<path class="st4" d="M53,18.4h-1.4"/>
			<path class="st4" d="M42.1,37.7v2"/>
			<path class="st4" d="M40.1,19.4v1.2L40,20.7"/>
			<path class="st4" d="M16,24.1v-0.7c0.2-0.1,0.4-0.1,0.6-0.1c0.4,0,0.7,0,1.1,0.1"/>
			<path class="st4" d="M30.7,17.9c-0.1,0.2-0.1,0.3,0,0.5v0.3c0,0.1-0.1,0.1-0.2,0.1h-1"/>
			<path class="st4" d="M23.9,19.1c-0.1-0.2-0.2-0.1-0.4-0.1c-0.4,0-0.7,0-1.1-0.1l-0.2-0.2h-1.5"/>
			<path class="st4" d="M59.7,19.4c0,0.1,0,0.2-0.1,0.3c0,0,0.1,0.1,0.1,0.2c0,0.3-0.1,0.7-0.1,1.1c0.1,0,0.2,0,0.3,0.1"/>
			<path class="st4" d="M20.2,17.4c-0.1-0.1-0.3-0.1-0.4-0.1c-0.4,0.1-0.8,0.2-1.2,0.3c-0.3,0.1-0.6,0.1-0.9,0.2l-0.1,0.1"/>
			<path class="st4" d="M44.6,15.4c-0.1-0.1-0.2-0.2-0.4-0.1H44c-0.4,0-0.7,0-1.1-0.1h-0.1"/>
			<path class="st4" d="M55.4,19.5v-0.3h-0.1c-0.2,0.2-0.4,0.2-0.6,0c-0.1-0.1-0.2-0.1-0.3,0V19h-1c-0.1,0.1-0.1,0.2-0.2,0.3"/>
			<path class="st4" d="M55.8,29.9v1.3"/>
			<path class="st4" d="M23.5,23.9c-0.1-0.2,0-0.4,0-0.6c-0.5,0.1-0.9,0-1.3,0.2"/>
			<path class="st4" d="M19.1,38.3c0,0.5,0.1,1,0.1,1.4"/>
			<path class="st4" d="M40.9,38.3C41,38.3,41,38.3,40.9,38.3c0.1-0.1,0.1-0.2,0.2-0.3c-0.2,0-0.3-0.1-0.4-0.1h-0.8
				c-0.1,0-0.1,0-0.2,0.1"/>
			<path class="st4" d="M40,39.6c0-0.2,0.1-0.4,0.1-0.6v-0.8c0.2-0.1,0.8,0,0.9,0v1.4"/>
			<path class="st4" d="M56.3,18.6v0.2h-1.5"/>
			<path class="st4" d="M39.7,38c0,0.1,0,0.1,0.1,0.2c0.1,0.1,0.1,0.3,0,0.5v0.8c0,0.1-0.1,0.2-0.2,0.2h-0.3c0-0.1-0.1-0.1-0.2-0.2
				h-0.7"/>
			<path class="st4" d="M51.2,18.5v0.2c-0.5,0.1-0.9,0-1.4,0v-0.4"/>
			<path class="st4" d="M42.5,19.2c-0.1-0.1-0.3,0-0.4,0c-0.3,0-0.6,0-0.9-0.1l0,0c-0.1,0.1-0.1,0.1-0.2,0.2h-1.7v0.2
				c0,0,0,0.1-0.1,0.1h-1.3c-0.1,0-0.2,0-0.2-0.1h-0.2v0.7h-0.1"/>
			<path class="st4" d="M49.1,25.3c-0.2-0.1-0.5,0-0.7,0c-0.2,0.1-0.4,0.1-0.7,0.2"/>
			<path class="st4" d="M24.7,25.4c-0.1,0-0.1-0.1-0.2-0.1c0-0.1,0.1-0.2,0.1-0.3c-0.1-0.2-0.3-0.2-0.4-0.3c-0.4-0.1-0.8-0.1-1.2,0
				c-0.2,0-0.3,0.2-0.5,0.2c-0.1,0-0.1,0-0.2,0.1"/>
			<path class="st4" d="M62.5,31.1v1.3"/>
			<path class="st4" d="M34.9,20c-0.2,0.1-0.2,0.2,0,0.4h0.9"/>
			<path class="st4" d="M59.8,18.3h-0.4c-0.4,0-0.7,0-1.1,0.1"/>
			<path class="st4" d="M51.6,18.6H52c0.3-0.1,0.5,0,0.7,0c0.3-0.1,0.5-0.1,0.7-0.1c0.1,0.1,0.1,0.1,0.2,0.2h1
				c0-0.1,0.1-0.1,0.1-0.2c0,0.1,0.1,0.1,0.1,0.2"/>
			<path class="st4" d="M14.3,17.6v0.3H14c0,0.1,0,0.1-0.1,0.2c0.2,0.1,0.5,0.1,0.7,0.1"/>
			<path class="st4" d="M48.8,15.3h-0.5c-0.1,0-0.2-0.1-0.3-0.2c-0.1,0-0.1-0.1-0.2-0.1c-0.1,0.1-0.1,0.1-0.2,0.2
				c-0.1-0.1-0.1-0.1-0.2-0.2c-0.2,0-0.5,0-0.8-0.1c0,0.2-0.2,0.1-0.3,0.1c-0.1,0.2-0.3,0.4-0.4,0.6"/>
			<path class="st4" d="M23.4,18c-0.4,0-0.9,0-1.3,0.1"/>
			<path class="st4" d="M58,17.7c-0.5,0-1,0.1-1.5,0.1h-0.9c-0.2,0.1-0.4,0.1-0.6,0.1s-0.2,0-0.2,0.2s0,0.4,0.1,0.6"/>
			<path class="st4" d="M36.6,19.8c-0.1,0-0.1-0.1-0.2-0.1c0-0.1-0.1-0.1-0.1-0.2h-1.1c0,0.2-0.1,0.3-0.1,0.5h-0.2
				c-0.1-0.1-0.2,0-0.3,0"/>
			<path class="st4" d="M43.5,19.3c-0.1,0.2-0.2,0.5-0.1,0.8v1"/>
			<path class="st4" d="M19.2,21.3v-0.9c0-0.1,0.1-0.1,0.1-0.2l0,0v-0.8c0.1-0.1,0.2-0.1,0.4-0.2c0.3,0.2,0.6,0.3,0.8,0.5v1.4"/>
			<path class="st4" d="M29.2,19.4v0.2c0,0.1,0,0.2,0.1,0.3h0.4c0-0.2-0.1-0.4-0.1-0.5c0.1,0,0.2,0,0.2-0.1v1.8"/>
			<path class="st4" d="M39.5,25.7h-0.7c-0.1,0-0.3,0-0.4,0.1c-0.1,0-0.2,0.1-0.3,0.1"/>
			<path class="st4" d="M50.9,15.6h-0.2c-0.1-0.1-0.2-0.2-0.3-0.3s-0.2-0.1-0.2-0.1c-0.1,0-0.3-0.1-0.4-0.1s-0.2,0-0.3,0.1"/>
			<path class="st4" d="M63.3,24.5c0,0.2,0.1,0.5,0.1,0.7v0.9"/>
			<path class="st4" d="M62.2,24.7V25c0,0.3,0,0.6,0.1,1"/>
			<path class="st4" d="M23.5,18.5c-0.2,0-0.3,0-0.5,0.1h-0.6c-0.1,0-0.1,0-0.2,0.1"/>
			<path class="st4" d="M57.2,23.1c0-0.5,0-1-0.1-1.5H57"/>
			<path class="st4" d="M30.3,16.4v1.2"/>
			<path class="st4" d="M57.3,38.1c0.1,0,0.3,0,0.4,0.1c0,0.5,0.1,0.9,0.1,1.3"/>
			<path class="st4" d="M61.9,24.7c0,0.5,0,0.9-0.1,1.4v0.3"/>
			<path class="st4" d="M48.4,26.3v1.3"/>
			<path class="st4" d="M53.1,19.3V21"/>
			<path class="st4" d="M38.3,20.1h0.2c0.2,0,0.3,0,0.3,0.3v0.4C38.7,21,38.6,21,38.4,21"/>
			<path class="st4" d="M41.8,22.8v0.3h0.3c0,0.4,0,0.7-0.1,1.1l0.3,0.3l0.1,0.1"/>
			<path class="st4" d="M49.7,18.4v0.2c0,0.1-0.1,0.1-0.2,0.1c-0.3,0-0.5,0.1-0.8,0.1c-0.1,0-0.2-0.1-0.3-0.1h-0.1
				c-0.1,0.1-0.1,0.1-0.2,0.2c0-0.1-0.1-0.1-0.1-0.2"/>
			<path class="st4" d="M55.1,18.4c0.3,0,0.6,0.1,1,0.1h0.4"/>
			<path class="st4" d="M55.2,24.7c-0.1,0-0.1,0.1-0.2,0.1h-0.7C54.2,24.9,54.1,25,54,25"/>
			<path class="st4" d="M33.9,19.3v1.2"/>
			<path class="st4" d="M50.1,21.3h0.6c-0.1,0.2-0.2,0.3-0.2,0.4V23"/>
			<path class="st4" d="M29.3,20v1.2"/>
			<path class="st4" d="M18.7,18.6h-1.6"/>
			<path class="st4" d="M63.5,37.5L63.5,37.5v1c0,0.1,0,0.1,0.1,0.1"/>
			<path class="st4" d="M40.3,38.6C40.3,38.6,40.3,38.7,40.3,38.6c0,0.4-0.1,0.8-0.1,1.2"/>
			<path class="st4" d="M57.4,19.6v1.3"/>
			<path class="st4" d="M51.4,18.4H50"/>
			<path class="st4" d="M39.8,18.3C39.8,18.3,39.8,18.4,39.8,18.3c-0.1,0.2-0.2,0.2-0.2,0.3c-0.1,0-0.2,0.1-0.2,0
				c-0.1-0.2-0.3-0.1-0.5-0.1H38"/>
			<path class="st4" d="M51.9,17.8H51c-0.1,0-0.2,0.1-0.3,0.1c-0.3,0.1-0.6,0.2-0.8,0.2"/>
			<path class="st4" d="M49.9,24.5v1.3c0.3,0.1,0.7,0.1,1,0.2"/>
			<path class="st4" d="M50.5,15.7c0,0.7-0.1,1.4-0.1,2.1v0.1"/>
			<path class="st4" d="M61.8,19.6c-0.1,0-0.3,0.1-0.3,0.3c0,0.3,0,0.5,0.3,0.7l0.1,0.1"/>
			<path class="st4" d="M40.1,17.9h-1.2"/>
			<path class="st4" d="M37.9,18.5v0.3c0.4,0,0.8,0,1.2,0.1c0-0.1,0-0.2,0.1-0.3"/>
			<path class="st4" d="M25,19.3h-0.3c-0.2,0-0.4,0-0.5-0.1l-0.1-0.1c-0.3,0.1-0.5,0.3-0.7,0.3h-1c-0.1,0-0.1,0.1-0.2,0.2L22,19.4
				c-0.1,0-0.1,0.1-0.1,0.2s0,0.1,0.3,0.3v0.3c0.1,0,0.2,0.1,0.4,0.1"/>
			<path class="st4" d="M56.5,19.5v1.4c0,0,0,0.1,0.1,0.1"/>
			<path class="st4" d="M50.1,39.6c0,0.1-0.1,0.2-0.1,0.3c-0.4-0.1-0.8-0.1-1.2-0.1"/>
			<path class="st4" d="M48.1,18.4c0.3,0,0.5,0,0.8,0.1h0.5"/>
			<path class="st4" d="M19.2,24c-0.3,0-0.6-0.1-0.9-0.1h-0.2"/>
			<path class="st4" d="M24.6,17.6c0,0.3-0.1,0.7-0.1,1v0.1"/>
			<path class="st4" d="M44.8,16.9c-0.3,0-0.6,0.1-0.9,0.1h-0.2"/>
			<path class="st4" d="M32.6,25.5c-0.3,0-0.4,0.2-0.5,0.3c-0.2,0.2-0.2,0.4-0.2,0.6"/>
			<path class="st4" d="M38.5,37.9h1c0.1,0,0.2,0,0.2,0.1"/>
			<path class="st4" d="M50.2,24.6v1.1"/>
			<path class="st4" d="M40.8,21h-1"/>
			<path class="st4" d="M17.3,39.9h1.3"/>
			<path class="st4" d="M44.4,15.2c0-0.2,0-0.4,0.1-0.6H44"/>
			<path class="st4" d="M29.8,19.5c0.1,0,0.2,0.1,0.3,0.2c0,0.1,0,0.3,0.1,0.4v1"/>
			<path class="st4" d="M50.8,24.7c0,0.3,0,0.7,0.1,1V26"/>
			<path class="st4" d="M50.7,36.4c-0.2,0.1-0.4,0-0.6,0s-0.3-0.1-0.5-0.1"/>
			<path class="st4" d="M51.3,19.2C51.4,19.2,51.4,19.2,51.3,19.2C51.4,19.2,51.4,19.2,51.3,19.2c0-0.1-0.1,0-0.2,0L51,19.3v0.2
				c-0.1,0.3,0,0.7-0.1,1v0.6"/>
			<path class="st4" d="M50.9,19.8c0,0-0.1,0-0.1-0.1c-0.1-0.2-0.3-0.2-0.6-0.2h-0.3c-0.1-0.1-0.2-0.2-0.3-0.3
				c-0.3,0.1-0.5,0.2-0.8,0.3c0-0.1-0.1-0.1-0.1-0.2c-0.3,0-0.6-0.1-0.9-0.1c-0.1,0.1-0.2,0.1-0.4,0h-0.6"/>
			<path class="st4" d="M43.5,21.6v1c0,0.1-0.1,0.1-0.1,0.2c0,0,0,0.1-0.1,0.1"/>
			<path class="st4" d="M55.7,37.2v1.7"/>
			<path class="st4" d="M53.7,19.4C53.6,19.3,53.7,19.4,53.7,19.4c-0.1,0.4-0.1,0.8-0.1,1.1V21"/>
			<path class="st4" d="M22.1,18.6V18h-1.3"/>
			<path class="st4" d="M62.1,31.3v1.1"/>
			<path class="st4" d="M37.3,19.5v1"/>
			<path class="st4" d="M49.2,20.1h-0.5c0-0.1,0-0.2-0.1-0.3c-0.3,0.1-0.6,0.1-0.9,0.2"/>
			<path class="st4" d="M29,25.6c-0.4,0-0.8-0.1-1.2-0.1"/>
			<path class="st4" d="M43.6,32.9V34"/>
			<path class="st4" d="M50.6,24.5v1.2"/>
			<path class="st4" d="M25.3,38.4v1"/>
			<path class="st4" d="M62.8,39.4h-0.5c-0.1,0-0.3,0-0.4,0.1c-0.1,0-0.2,0.1-0.3,0"/>
			<path class="st4" d="M60.2,39.3c0.1,0,0.1,0.1,0.2,0.1c0.3,0,0.6,0.1,0.9,0.1"/>
			<path class="st4" d="M44.4,19.9c-0.2,0-0.2,0.1-0.3,0.2c0.1,0.2,0.1,0.4-0.1,0.6v0.2"/>
			<path class="st4" d="M33.4,17.9h-1"/>
			<path class="st4" d="M28.2,17.3c0.1,0.2,0.3,0.3,0.4,0.5h0.2c0,0.1,0.1,0.1,0.1,0.1"/>
			<path class="st4" d="M42.5,20v-0.8h0.4v1.9"/>
			<path class="st4" d="M29.6,21.2h0.9c-0.1,0.2-0.2,0.4-0.3,0.6c-0.1,0.2-0.1,0.4,0,0.6"/>
			<path class="st4" d="M39.4,21.4C39.3,21.4,39.3,21.4,39.4,21.4c-0.3-0.1-0.6-0.1-0.9-0.1"/>
			<path class="st4" d="M57.7,19.3c-0.1,0-0.2,0-0.2,0.2h-0.3c0-0.2-0.1-0.3-0.1-0.5c-0.3,0-0.5,0.1-0.8,0.1
				c-0.1,0.1-0.1,0.2-0.1,0.3"/>
			<path class="st4" d="M31,25.5v1.1"/>
			<path class="st4" d="M16.8,34.6c0,0.3,0,0.5-0.1,0.8v0.2h-0.1"/>
			<path class="st4" d="M45.7,20.5h-1.2"/>
			<path class="st4" d="M21.1,19.7v0.1C21,19.9,21,20,20.9,20.1v0.2c0,0.1,0,0.3,0.1,0.5h0.2"/>
			<path class="st4" d="M42.1,36.7c0.1,0.3,0,0.6,0,0.9"/>
			<path class="st4" d="M65.3,18.4H63"/>
			<path class="st4" d="M30.7,38.8v1"/>
			<path class="st4" d="M40.8,19.3v1.6"/>
			<path class="st4" d="M48,18.6l-0.1,0.1c-0.1,0-0.2,0-0.3,0.1c0,0.1-0.2,0.1-0.3,0.1H47"/>
			<path class="st4" d="M43.4,23.8L43.4,23.8c-0.4,0.1-0.9-0.1-1.3,0"/>
			<path class="st4" d="M48,35.1V36"/>
			<path class="st4" d="M24,17.7c0.5-0.1,0.9-0.2,1.4-0.3v0.5h2.1"/>
			<path class="st4" d="M43.9,21.4c0,0.3-0.1,0.6-0.1,0.9c0.1,0.2,0.3,0.4,0.4,0.6c-0.1,0.1,0,0.2-0.1,0.3"/>
			<path class="st4" d="M35.4,25.7c0.1,0,0.2,0,0.3,0.1c0.1,0,0.2,0.2,0.2,0.3c0,0.2,0,0.4-0.1,0.6"/>
			<path class="st4" d="M39.5,25.5c-0.3,0-0.6,0-0.9-0.1"/>
			<path class="st4" d="M40.5,38.3v0.9"/>
			<path class="st4" d="M17.6,20.6c0.1,0.1,0.1,0.2,0.2,0.3c0.1-0.1,0.3-0.1,0.4-0.2c0.1,0,0.1,0.1,0.2,0.1s0.1-0.1,0.2,0h0.2"/>
			<path class="st4" d="M42.1,37.9h-0.9"/>
			<path class="st4" d="M22.4,23.5c0.2,0.1,0.5,0.2,0.7,0.3c0.1,0,0.1,0,0.2,0.1"/>
			<path class="st4" d="M57.1,39.3h-1.3v-0.2"/>
			<path class="st4" d="M36.7,37.5h-0.9"/>
			<path class="st4" d="M36.2,19.4c0.1,0,0.1,0.1,0.1,0.2v1.2c-0.1,0-0.1-0.1-0.2-0.1"/>
			<path class="st4" d="M46,19c0,0.1-0.1,0.2-0.1,0.3c-0.3,0-0.5,0.1-0.8,0.3v-0.3c-0.1,0-0.2,0-0.2,0.1s0,0.2-0.1,0.3
				c-0.2,0-0.4,0.1-0.6,0.1"/>
			<path class="st4" d="M41.8,19.5c-0.1-0.1-0.2-0.1-0.3,0c-0.1,0-0.2,0.1-0.2,0.1c0,0.3,0.2,0.4,0.3,0.5c0.2,0.1,0.4-0.1,0.6-0.1
				c0.2,0.1,0.4,0.1,0.7,0.2"/>
			<path class="st4" d="M24.1,17.7v1.2c0.2,0,0.4,0.1,0.6,0.1c0.3-0.3,0.7-0.5,1.2-0.3v-0.9"/>
			<path class="st4" d="M49.8,20.2v-0.4h-0.1c-0.1,0.2-0.2,0.3-0.2,0.5c-0.1,0.2-0.1,0.3-0.2,0.5c0,0,0.1,0,0.1,0.1V21"/>
			<path class="st4" d="M27.8,17.1c0,0.3,0,0.6-0.1,0.8"/>
			<path class="st4" d="M29.1,14.5v0.1c0.1,0.3,0.1,0.5,0.2,0.9c0.1,0.1,0.3,0.3,0.5,0.4"/>
			<path class="st4" d="M51.1,32.7v0.9"/>
			<path class="st4" d="M37.1,35.6v1c0,0.1,0,0.1,0.1,0.2"/>
			<path class="st4" d="M62.2,26v0.8"/>
			<path class="st4" d="M21.6,39.9h1.2"/>
			<path class="st4" d="M59.6,39.3c-0.3,0-0.6,0-0.8,0.1"/>
			<path class="st4" d="M36,27.3c0,0.2-0.1,0.3-0.1,0.5v0.5"/>
			<path class="st4" d="M16.1,24.1c0.2,0.2,0.4,0.5,0.5,0.7c0.5-0.2,1-0.2,1.4-0.2c0.1,0,0.2,0.1,0.3,0.2c0,0,0.1,0,0.2-0.1"/>
			<path class="st4" d="M43,23.8c-0.1,0.1-0.3,0.2-0.5,0.2c-0.1,0-0.2,0-0.3,0.1c0,0,0,0.1,0.1,0.1"/>
			<path class="st4" d="M12.2,43.6v-1.1H13"/>
			<path class="st4" d="M39,19.5l-0.1,0.1c-0.2,0.1-0.3,0.2-0.5,0.3c-0.1,0-0.1,0.1-0.2,0.2c0,0-0.1,0-0.1-0.1"/>
			<path class="st4" d="M45.2,24.1c0.1,0,0.3,0.1,0.4,0.1c-0.1,0.1-0.2,0.2-0.2,0.3c-0.1,0.1-0.1,0.1-0.1,0.2c0,0.1-0.1,0-0.1,0.1"
				/>
			<path class="st4" d="M42.4,38c0.3,0,0.5,0.1,0.8,0.1"/>
			<path class="st4" d="M56.6,29.2v1.4"/>
			<path class="st4" d="M24.8,26.5v0.8"/>
			<path class="st4" d="M43.4,17c0.1-0.1,0.1-0.1,0.2,0c0.2,0.3,0.5,0.5,0.7,0.7c0,0.1,0.1,0.1,0.1,0.2"/>
			<path class="st4" d="M44.7,35.1c-0.1,0-0.2,0.1-0.2,0.1c-0.2,0.1-0.3,0.2-0.5,0.3"/>
			<path class="st4" d="M31.3,19.8c0.1-0.1,0.3,0,0.3,0.1c-0.1,0.2-0.2,0.2-0.4,0.1c-0.1-0.1-0.3-0.1-0.4-0.1s-0.2,0-0.2-0.2"/>
			<path class="st4" d="M36.8,35.6c-0.3,0-0.5,0-0.8,0.1h-0.1"/>
			<path class="st4" d="M28.9,17.6c-0.2-0.3-0.3-0.6-0.5-0.9c0.1-0.1,0.2-0.3,0.2-0.4c-0.1,0-0.2,0-0.2-0.1V16
				c-0.1-0.1-0.3-0.1-0.3-0.3c-0.2,0-0.4,0.1-0.6,0.1c0.1,0.3,0.2,0.4,0.5,0.5c0,0.1-0.1,0.2-0.1,0.3c0.1,0.1,0.2,0.1,0.2,0.2"/>
			<path class="st4" d="M31.2,27.8h-1"/>
			<path class="st4" d="M28.6,20c-0.1,0.3-0.2,0.5-0.3,0.8h0.5c0.1-0.1,0.1-0.2,0.2-0.3c-0.1,0-0.1-0.1-0.2-0.1l0.3-0.3l-0.3-0.3
				C28.7,19.9,28.7,20,28.6,20"/>
			<path class="st4" d="M47.7,26.1c0.3,0,0.5,0.1,0.8,0.1"/>
			<path class="st4" d="M58.7,38.6v0.8"/>
			<path class="st4" d="M23.1,24.7v0.7c0,0.1,0,0.1-0.1,0.1"/>
			<path class="st4" d="M41.9,15.8h-0.7"/>
			<path class="st4" d="M18.3,21.5v0.3c0,0.1-0.1,0.3-0.2,0.4L18,22.3v0.8"/>
			<path class="st4" d="M27.7,17.1c0,0.3-0.1,0.6-0.1,0.9"/>
			<path class="st4" d="M30.7,20.2V21l0,0"/>
			<path class="st4" d="M30.2,20.1c0-0.2,0.1-0.3,0.1-0.5h0.1c0.1-0.1,0.1-0.1,0.2-0.1l0.2-0.2l0.3,0.3h1.1"/>
			<path class="st4" d="M30.3,38.6v0.3c0,0.3,0,0.6,0.1,0.9"/>
			<path class="st4" d="M42,39.6c-0.6,0-0.7,0-0.8,0.1c-0.1,0-0.2,0-0.2-0.1"/>
			<path class="st4" d="M23.2,19.4L22.6,20v1.1h0.1"/>
			<path class="st4" d="M34.6,19.4c-0.5-0.1-1-0.2-1.5-0.3c-0.2,0.2-0.5,0.3-0.7,0.5v-0.2"/>
			<path class="st4" d="M43.9,21.2h-0.7"/>
			<path class="st4" d="M36,35.6v0.7"/>
			<path class="st4" d="M61.6,18.4h0.8c0.2,0,0.4,0,0.7,0.1"/>
			<path class="st4" d="M38.4,23.2c0.1,0.1,0.1,0.2,0.1,0.3v0.4c0,0.2-0.2,0.5-0.4,0.6"/>
			<path class="st4" d="M50.9,29.7c0.2,0,0.4,0,0.6,0.1h0.2"/>
			<path class="st4" d="M21.7,19.4H21l-0.2-0.2c-0.1,0.1-0.2,0.3-0.2,0.4"/>
			<path class="st4" d="M66.5,40.8h0.9V42H13.3"/>
			<path class="st4" d="M51.5,32.3v-0.6h-0.1"/>
			<path class="st4" d="M51.3,31.2v0.7"/>
			<path class="st4" d="M45.1,24c0.1,0.1,0.1,0.1,0,0.2c-0.1,0.1-0.2,0.3-0.3,0.4l0.1,0.7c0,0,0,0.1,0,0c0.2,0.1,0.4,0,0.6,0l0.4-1"
				/>
			<path class="st4" d="M37.6,35.8v0.8c0,0.1,0,0.2,0.1,0.2"/>
			<path class="st4" d="M42.7,19.3c0,0.3,0,0.5-0.1,0.8"/>
			<path class="st4" d="M55.2,24.7c0.1,0.1,0.3,0.1,0.4,0.2c0,0.1,0,0.2,0.1,0.3c-0.1,0.1-0.2,0.2-0.3,0.4"/>
			<path class="st4" d="M35.5,38.9h-0.7"/>
			<path class="st4" d="M36.8,32.2c0.3,0.1,0.5,0.2,0.8,0.3v0.2"/>
			<path class="st4" d="M32,37.9L32,37.9c0,0.3,0.1,0.6,0.2,0.9V39"/>
			<path class="st4" d="M25.7,25.4H25"/>
			<path class="st4" d="M64.1,37.9v0.8"/>
			<path class="st4" d="M62.9,23.2h1c0.1,0,0.2,0,0.2,0.1c0,0,0.1,0.1,0.2,0.1v0.5h-0.1l-0.5,0.5"/>
			<path class="st4" d="M48.5,25.6c-0.2,0-0.4,0.1-0.6,0.2h-0.2"/>
			<path class="st4" d="M51.2,23.8H52"/>
			<path class="st4" d="M43.6,38.1V39"/>
			<path class="st4" d="M49.2,24.5h1.7c0.1,0,0.3,0.1,0.4,0.1l0.1,0.1"/>
			<path class="st4" d="M56.2,30v0.7"/>
			<path class="st4" d="M30.2,33.8c-0.1-0.2-0.4-0.3-0.6-0.2"/>
			<path class="st4" d="M18.9,24.6c0.1-0.2,0.1-0.3-0.3-0.3c0,0.1-0.1,0.3-0.1,0.4"/>
			<path class="st4" d="M27.3,19.5v0.7"/>
			<path class="st4" d="M41.7,25.3v0.6h0.4"/>
			<path class="st4" d="M19,20c-0.1-0.1-0.1-0.2-0.2-0.3l-0.4,0.4l-0.2-0.2C18.1,20,18,20,17.9,20.1c0-0.1-0.1-0.2-0.1-0.2h0.1"/>
			<path class="st4" d="M20.4,39.9c0.2,0.2,0.3,0.1,0.5,0.1H21"/>
			<path class="st4" d="M49.5,15.6v0.8"/>
			<path class="st4" d="M52.1,23.1v0.7"/>
			<path class="st4" d="M38.2,18.2h-0.6"/>
			<path class="st4" d="M58.9,19.8c0-0.1,0-0.2,0.1-0.3h-0.4c0,0.1-0.1,0.2-0.1,0.3h-0.1"/>
			<path class="st4" d="M48.8,25.8c-0.2-0.1-0.4,0-0.6,0.1c-0.1,0-0.1,0.1-0.2,0.1"/>
			<path class="st4" d="M55.7,22.9v0.8"/>
			<path class="st4" d="M47.6,19.1v0.8c0,0,0,0.1,0.1,0.1c0.1,0.2,0.1,0.3,0,0.5v0.1"/>
			<path class="st4" d="M37.5,21.1C37.5,21.2,37.5,21.2,37.5,21.1c-0.2,0.1-0.4,0.1-0.5,0.2"/>
			<path class="st4" d="M56.1,17.5c0.1-0.1,0.2-0.1,0.3-0.2c0.2,0.1,0.4,0.1,0.6,0.2c0.1,0,0.1,0,0.1,0.1"/>
			<path class="st4" d="M26.8,19.3c0.1,0,0.1,0.1,0.2,0.1l0,0c0.1,0,0.1-0.1,0.2-0.1c0.1,0.2,0.4,0.2,0.6,0.1c0-0.2,0.2-0.2,0.3-0.2
				c0.2,0.2,0.3,0.4,0.5,0.6"/>
			<path class="st4" d="M53,19.3c-0.1,0.1-0.2,0.1-0.3,0.2c-0.1-0.1-0.1-0.2-0.2-0.2c-0.2,0.1-0.4,0.3-0.7,0.4v-0.2h-0.3v-0.3h-0.1"
				/>
			<path class="st4" d="M21.6,20c0.1,0.1,0.2,0.1,0.3,0.2c0,0.2,0,0.4-0.1,0.6c-0.1,0.1,0,0.3,0.2,0.4"/>
			<path class="st4" d="M44.5,23.8c0.2,0.1,0.3,0.1,0.5,0.2c0.1,0,0.2-0.1,0.3-0.2"/>
			<path class="st4" d="M37,19.8v1.1"/>
			<path class="st4" d="M45.9,17c0-0.1-0.1-0.1-0.2-0.1H45"/>
			<path class="st4" d="M36,21v-0.1c0-0.1,0-0.3-0.1-0.3c-0.1-0.1-0.2-0.2-0.2-0.3s-0.1-0.3-0.2-0.4c-0.1-0.1-0.2-0.1-0.3-0.1"/>
			<path class="st4" d="M40.8,20.3c0.1,0,0.2,0.1,0.3,0.1c0,0.2,0.2,0.3,0.3,0.4"/>
			<path class="st4" d="M47.9,25c0,0.1,0.1,0.2,0.1,0.3c0.2-0.1,0.5-0.3,0.7-0.4v-0.5"/>
			<path class="st4" d="M31.9,27.2v0.6"/>
			<path class="st4" d="M57.7,21c0,0,0,0.1,0.1,0.1c-0.1,0.1-0.2,0.3-0.3,0.4"/>
			<path class="st4" d="M19.1,39.8c0.2-0.1,0.4,0,0.6,0h0.2"/>
			<path class="st4" d="M37,33.4v0.9"/>
			<path class="st4" d="M31,28.8h-0.7"/>
			<path class="st4" d="M36.7,36v0.5"/>
			<path class="st4" d="M43.9,19.4c0,0.2,0,0.4-0.1,0.6"/>
			<path class="st4" d="M45.6,16.9v0.7"/>
			<path class="st4" d="M59.3,20.3c-0.1-0.1-0.2,0-0.3,0s-0.3,0-0.4,0.1c0,0,0,0.1-0.1,0.1"/>
			<path class="st4" d="M62.1,16.3v0.2c-0.1,0.1-0.2,0.1-0.3,0.2"/>
			<path class="st4" d="M60.3,24.7l0.2-0.2c0.3-0.2,0.5-0.1,0.8,0"/>
			<path class="st4" d="M43.1,19.4c0.1-0.1,0.2-0.1,0.3-0.2c0.2,0.1,0.5,0.2,0.8,0.3c0.1,0,0.1,0.2,0.1,0.3"/>
			<path class="st4" d="M40.7,38.3v0.6"/>
			<path class="st4" d="M55.4,19.4h0.5v-0.2c0.1,0,0.2,0.1,0.2,0.2v0.1"/>
			<path class="st4" d="M61.9,19.5h0.5c0.1,0,0.2,0.1,0.2,0.3c-0.1,0-0.3,0-0.5,0.1c0.2,0.2,0.5,0.4,0.2,0.7"/>
			<path class="st4" d="M59.3,21.3h-1"/>
			<path class="st4" d="M49.7,20.6v0.5"/>
			<path class="st4" d="M24.6,20c0.1-0.2,0.2-0.4,0.3-0.6h-0.6"/>
			<path class="st4" d="M60.8,23.7L60.8,23.7c0.1,0.2,0,0.3-0.2,0.4c0,0,0,0.1-0.1,0.1"/>
			<path class="st4" d="M44.6,20.6c-0.1,0-0.1,0.1-0.1,0.1c0.1,0.1,0.2,0.2,0.2,0.3"/>
			<path class="st4" d="M58.1,20.1C58.2,20.2,58.2,20.2,58.1,20.1c0.1,0.2,0.1,0.3,0.1,0.4"/>
			<path class="st4" d="M51.5,26.5V27"/>
			<path class="st4" d="M37,19.5c-0.1,0-0.2-0.1-0.2,0c-0.1,0.1-0.2,0.2-0.2,0.4v0.5c0.1,0.1,0.3,0,0.4,0"/>
			<path class="st4" d="M44.6,19.9c0,0.2,0,0.3-0.1,0.5"/>
			<path class="st4" d="M34.6,19.3c0,0.2,0,0.4-0.1,0.6"/>
			<path class="st4" d="M61.7,16.7c0,0.1,0.1,0.3,0.2,0.3s0.2-0.1,0.4-0.1"/>
			<path class="st4" d="M24.7,25.5v0.2c0,0.1,0,0.2-0.1,0.3c0.1,0,0.1,0.1,0.2,0.1c0,0,0.1,0,0.1-0.1"/>
			<path class="st4" d="M35.4,24.1c0,0.2,0,0.3-0.1,0.5"/>
			<path class="st4" d="M30.3,21.4h-0.5c0-0.1-0.1-0.1-0.1-0.2"/>
			<path class="st4" d="M55.6,23.9v0.5"/>
			<path class="st4" d="M35.1,25.3C35.1,25.3,35.1,25.4,35.1,25.3c-0.1,0.1-0.3,0.1-0.4,0.1"/>
			<path class="st4" d="M60.9,19.5V20h0.3"/>
			<path class="st4" d="M47.7,25c0,0.3-0.1,0.6-0.1,0.9v0.2"/>
			<path class="st4" d="M45.7,19.6c-0.1,0.1-0.2,0.2-0.3,0.2h-0.1"/>
			<path class="st4" d="M29.4,38.2c-0.1,0.1-0.3,0.2-0.4,0.2"/>
			<path class="st4" d="M61.6,27.4v0.4"/>
			<path class="st4" d="M35.8,24.5c0.1,0,0.2-0.1,0.2,0c-0.1,0.1-0.2,0.3-0.3,0.4"/>
			<path class="st4" d="M63.8,32.4c-0.3,0-0.7-0.1-1-0.1s-0.6,0.1-0.9,0.2"/>
			<path class="st4" d="M32.1,39.1L32,39h0.6"/>
			<path class="st4" d="M18.4,35.5c-0.2,0-0.4-0.1-0.5-0.1h-0.5c-0.1,0-0.2,0-0.2,0.1"/>
			<path class="st4" d="M29,17.8v0.1c0,0.2-0.1,0.4-0.1,0.6"/>
			<path class="st4" d="M61.5,28.4c0.1,0,0.3-0.1,0.4-0.1v-0.5c-0.1,0-0.2,0.1-0.3,0.1c0,0.2,0,0.3,0.1,0.4"/>
			<path class="st4" d="M59.9,17.9h-1.1"/>
			<path class="st4" d="M19.7,17.8c0,0.1,0,0.2,0.1,0.3c0.5-0.3,1.1-0.5,1.6-0.7c0.1,0,0.1-0.1,0.2-0.1s0.2-0.1,0.1-0.2
				c-0.5,0.1-0.9,0.2-1.4,0.3h-0.1"/>
			<path class="st4" d="M42.2,36.2c0.2,0.1,0.4,0.1,0.7,0.2c0.1,0,0.1,0,0.2-0.1"/>
			<path class="st4" d="M50.9,19.9c-0.2,0-0.4-0.1-0.6,0.1c-0.1,0.1-0.3,0-0.4-0.1"/>
			<path class="st4" d="M17.5,34.6h-0.4"/>
			<path class="st4" d="M60.2,16.8c-0.1,0.1-0.2,0.2-0.1,0.4c-0.2,0-0.3,0.1-0.3,0.3v0.4"/>
			<path class="st4" d="M61.3,25.1h-0.4"/>
			<path class="st4" d="M49.8,19.5c0,0.1,0,0.3-0.1,0.4"/>
			<path class="st4" d="M25.4,18.5v-0.3H25"/>
			<path class="st4" d="M25.1,20.6c-0.2,0-0.4,0.1-0.5,0h-0.2c-0.1,0-0.2,0.1-0.2,0.1c0-0.1-0.1-0.2-0.1-0.2s-0.1,0-0.1,0.1"/>
			<path class="st4" d="M34.1,39.3v0.4"/>
			<path class="st4" d="M62.9,37.3C63,37.3,63,37.2,62.9,37.3c0.2-0.1,0.3-0.1,0.4-0.1c0.1,0.2,0.2,0.4,0.4,0.7"/>
			<path class="st4" d="M25.5,39.6h-0.4L25,39.7"/>
			<path class="st4" d="M29.1,19.5c-0.1,0-0.1,0.1-0.2,0.1c0,0.1,0,0.2-0.1,0.3"/>
			<path class="st4" d="M25.7,39.4v0.4"/>
			<path class="st4" d="M19.4,24.3c0.1,0.1,0.3,0.1,0.4,0.2"/>
			<path class="st4" d="M44.8,36h-1.1c-0.1,0-0.1,0-0.1-0.1"/>
			<path class="st4" d="M63.3,24.6h-0.7"/>
			<path class="st4" d="M63.1,26h-0.3"/>
			<path class="st4" d="M48,20.6c0,0.1-0.1,0.2,0,0.3c0,0.1,0.2,0.1,0.2,0.2"/>
			<path class="st4" d="M37.7,19.4c-0.2,0-0.4,0.1-0.6,0.1"/>
			<path class="st4" d="M29.1,18.7c0.1,0.1,0.2,0.2,0.3,0.2"/>
			<path class="st4" d="M56.3,38.1c-0.2,0-0.4,0.1-0.6,0.1"/>
			<path class="st4" d="M61.6,28.4c0,0.1,0,0.2,0.1,0.3"/>
			<path class="st4" d="M62.8,28.5c-0.3,0.1-0.5,0.1-0.8,0.2"/>
			<path class="st4" d="M27.2,17.8c0.1-0.1,0-0.1,0-0.2c-0.1,0.1-0.3,0.2-0.4,0.3"/>
			<path class="st4" d="M37.4,34.3v0.3"/>
			<path class="st4" d="M55.4,24.4c-0.1,0.1-0.1,0.2-0.2,0.3"/>
			<path class="st4" d="M16.9,40c-0.1,0.1-0.3,0.3-0.4,0.4l0.1,0.1c-0.1,0-0.1,0.1-0.2,0.1"/>
			<path class="st4" d="M17.1,35.5c-0.1,0-0.2,0-0.3,0.1"/>
			<path class="st4" d="M59.5,20.7c-0.1,0-0.2,0.1-0.3,0.1"/>
			<path class="st4" d="M32.4,20.9c-0.1,0.2-0.2,0.3-0.4,0.3"/>
			<path class="st4" d="M61.9,28.3v0.3c-0.1,0.1-0.3,0.2-0.4,0.3"/>
			<path class="st4" d="M35.7,31.7V32"/>
			<path class="st4" d="M28.2,17.1c0.1,0.3,0,0.5-0.1,0.7"/>
			<path class="st4" d="M34.1,18.2c0.1,0.1,0.2,0.1,0.3,0.2l0.1,0.1"/>
			<path class="st4" d="M62.3,28.2c-0.1,0-0.3,0-0.4,0.1"/>
			<path class="st4" d="M20.5,24.1v0.3"/>
			<path class="st4" d="M44.1,35.7V36"/>
			<path class="st4" d="M19.3,31.9v0.3"/>
			<path class="st4" d="M58.6,20.8c0.1,0.1,0.2,0.1,0.3,0.2"/>
			<path class="st4" d="M63.1,26c0.2,0,0.3,0,0.5,0.1"/>
			<path class="st4" d="M43,21.2c0.1,0,0.1,0,0.1,0.1c0,0.1,0.1,0.1,0.1,0.2h0.3"/>
			<path class="st4" d="M36.9,19.5c0,0.1,0,0.2,0.1,0.3"/>
			<path class="st4" d="M47.1,25.4c-0.1,0-0.2,0-0.3-0.1"/>
			<path class="st4" d="M39.3,18.5c0,0,0.1,0,0.1-0.1c0,0.1,0,0.2,0.1,0.3c0,0,0.1,0.1,0.2,0.2l0,0v-0.1"/>
			<path class="st4" d="M62.5,22.7c0.1,0.1,0.1,0.1,0.2,0.2c0,0.1-0.1,0.1-0.2,0.2"/>
			<path class="st4" d="M32,20.8c0.1-0.1,0-0.1-0.1-0.1s-0.1,0-0.2,0.1c0,0.1,0,0.1,0.1,0.2h0.1"/>
			<path class="st4" d="M35.7,31.1v0.2"/>
			<path class="st4" d="M56.9,38h0.3"/>
			<path class="st4" d="M61.2,24c0.1,0.1,0.1,0.3,0.2,0.4"/>
			<path class="st4" d="M21.1,19.8c0.1,0,0.1,0.1,0.2,0.1v0.4"/>
			<path class="st4" d="M64.4,18.4v0.2h-1.2v-0.3"/>
			<path class="st4" d="M59.8,17.9c0,0,0.1,0,0.1-0.1v0.4"/>
			<path class="st4" d="M15.9,40.4v0.2"/>
			<path class="st4" d="M39.8,24.7h-0.2"/>
			<path class="st4" d="M47.1,25.4c0.1,0.1,0.2,0.1,0.2,0.1v0.2"/>
			<path class="st4" d="M63.6,24.6h-0.3"/>
			<path class="st4" d="M45.2,20.8c0.1,0.1,0.1,0.1,0.2,0.2"/>
			<path class="st4" d="M25.1,24.1v0.4"/>
			<path class="st4" d="M43.8,38.1c-0.2,0-0.4,0-0.6,0.1"/>
			<path class="st4" d="M51.4,24.4c-0.1,0-0.2,0-0.3,0.1"/>
			<path class="st4" d="M37.1,19.4c0,0.1,0,0.2-0.1,0.3"/>
			<path class="st4" d="M60.9,19.1v0.3"/>
			<path class="st4" d="M62.1,27.8c-0.1,0-0.2,0.1-0.3,0.1"/>
			<path class="st4" d="M62.7,26h-0.8"/>
			<path class="st4" d="M19.8,39.6c0,0.1,0,0.2,0.1,0.2"/>
			<path class="st4" d="M19.2,33.4v0.2"/>
			<path class="st4" d="M55.7,23.7v0.2"/>
			<path class="st4" d="M62.3,21.2V21H62"/>
			<path class="st4" d="M32,20.5h0.3"/>
			<path class="st4" d="M17.6,35.3C17.5,35.3,17.4,35.3,17.6,35.3"/>
			<path class="st4" d="M62.6,24.6c-0.1,0-0.2,0-0.3,0.1"/>
			<path class="st4" d="M17.8,34.5C17.7,34.5,17.7,34.6,17.8,34.5c-0.1,0.1-0.1,0.1-0.2,0.1"/>
			<path class="st4" d="M47.2,19C47.2,19,47.1,19,47.2,19"/>
			<path class="st4" d="M21.3,40h-0.1"/>
			<path class="st4" d="M38.5,21.1c-0.1,0,0,0.1,0,0.1"/>
			<path class="st4" d="M27.7,17.1h0.1c-0.1,0-0.2-0.1-0.3-0.1c0-0.2-0.1-0.4,0-0.6c-0.1-0.1-0.2-0.3-0.3-0.4
				c-0.1,0.1-0.2,0.1-0.3,0.2"/>
			<path class="st4" d="M48.8,19.9c0,0-0.1,0-0.1,0.1"/>
			<path class="st4" d="M28.8,20l0.1,0.1"/>
			<path class="st4" d="M40.4,19.4c0,0,0,0.1,0.1,0.1"/>
			<path class="st4" d="M36.9,20.2v0.1"/>
			<path class="st4" d="M49.8,20l0.1,0.1l0,0"/>
			<path class="st4" d="M28.1,19.4C28.1,19.4,28.1,19.5,28.1,19.4"/>
			<path class="st4" d="M26.3,17.8c0-0.1-0.1-0.1-0.2-0.1"/>
			<path class="st4" d="M31.8,23.7C31.9,23.7,31.9,23.7,31.8,23.7l0.1,0.1"/>
			<path class="st4" d="M30.5,20c0,0,0,0.1,0.1,0.1"/>
			<path class="st4" d="M28.2,15.8h-0.1"/>
			<path class="st4" d="M38.5,37.8c0,0.1,0.2,0,0.2,0.1"/>
			<path class="st4" d="M21.2,20C21.2,20.1,21.3,20.1,21.2,20"/>
			<path class="st4" d="M17.2,19.8C17.2,19.8,17.3,19.8,17.2,19.8"/>
			<path class="st4" d="M37,32.3C37,32.3,37.1,32.3,37,32.3"/>
			<path class="st4" d="M51.6,16.2L51.6,16.2C51.6,16.2,51.6,16.2,51.6,16.2"/>
			<path class="st4" d="M25.7,15.6C25.6,15.6,25.6,15.6,25.7,15.6"/>
			<path class="st4" d="M62.6,38.3C62.6,38.3,62.6,38.4,62.6,38.3"/>
			<path class="st4" d="M64.1,18.7C64.1,18.7,64.2,18.8,64.1,18.7"/>
			<path class="st4" d="M40.1,38.7C40.1,38.7,40.1,38.8,40.1,38.7"/>
			<path class="st4" d="M18.5,20.8C18.5,20.8,18.5,20.9,18.5,20.8"/>
			<path class="st4" d="M53.7,16.6C53.7,16.7,53.7,16.7,53.7,16.6"/>
			<path class="st4" d="M63.4,37.4C63.3,37.4,63.3,37.4,63.4,37.4"/>
			<path class="st4" d="M42.1,25.7C42.1,25.8,42.1,25.8,42.1,25.7"/>
			<path class="st4" d="M36.3,19.6C36.3,19.6,36.2,19.6,36.3,19.6"/>
			<path class="st4" d="M18.8,20.9C18.8,20.9,18.7,20.9,18.8,20.9"/>
			<path class="st4" d="M35,16.9C35,16.9,35,17,35,16.9"/>
			<path class="st4" d="M40.9,19.4C40.9,19.3,40.8,19.3,40.9,19.4"/>
			<path class="st4" d="M16,40.3C16,40.3,16,40.4,16,40.3"/>
			<path class="st4" d="M43.3,19.3C43.3,19.3,43.4,19.4,43.3,19.3"/>
			<path class="st4" d="M44.3,20.1C44.4,20.1,44.4,20.1,44.3,20.1"/>
			<path class="st4" d="M59.9,18C59.9,18,59.8,18,59.9,18"/>
			<path class="st4" d="M38.4,37.7c0,0.1,0,0.1,0.1,0.2l0,0v-0.1"/>
			<path class="st4" d="M43.2,19.1C43.2,19.2,43.2,19.2,43.2,19.1"/>
			<path class="st4" d="M15.4,19.3C15.4,19.3,15.3,19.4,15.4,19.3"/>
			<path class="st4" d="M21.2,19.7v0.1"/>
			<path class="st4" d="M26.1,21.7C26.1,21.7,26.1,21.8,26.1,21.7"/>
			<path class="st4" d="M62.7,22.7C62.7,22.7,62.7,22.8,62.7,22.7"/>
			<path class="st4" d="M62.5,22.8C62.5,22.8,62.6,22.8,62.5,22.8"/>
			<path class="st4" d="M51.3,23.7C51.3,23.8,51.3,23.8,51.3,23.7"/>
			<path class="st4" d="M17.3,24.6C17.3,24.7,17.3,24.7,17.3,24.6"/>
			<path class="st4" d="M27.3,16.2C27.4,16.2,27.4,16.2,27.3,16.2"/>
			<path class="st4" d="M28.1,16.6C28,16.6,28,16.6,28.1,16.6"/>
			<path class="st4" d="M65.4,17.2C65.4,17.2,65.4,17.1,65.4,17.2"/>
			<path class="st4" d="M22.5,17.4C22.5,17.4,22.4,17.5,22.5,17.4"/>
			<path class="st4" d="M26.3,17.5C26.3,17.6,26.3,17.6,26.3,17.5"/>
			<path class="st4" d="M35.8,24.6C35.7,24.6,35.7,24.6,35.8,24.6C35.7,24.6,35.7,24.7,35.8,24.6"/>
			<path class="st4" d="M20.7,21.5L20.7,21.5C20.7,21.5,20.7,21.6,20.7,21.5"/>
			<path class="st4" d="M55.8,24.6C55.9,24.7,55.9,24.7,55.8,24.6C55.8,24.7,55.8,24.7,55.8,24.6"/>
			<path class="st4" d="M52.6,19.4C52.6,19.5,52.6,19.5,52.6,19.4"/>
			<path class="st4" d="M27.9,19.4L27.9,19.4C27.9,19.4,27.9,19.5,27.9,19.4"/>
			<path class="st4" d="M33.7,18C33.7,18,33.7,18.1,33.7,18"/>
			<path class="st4" d="M21.4,17.3C21.4,17.3,21.3,17.3,21.4,17.3C21.3,17.3,21.3,17.3,21.4,17.3"/>
			<path class="st4" d="M53.2,18l0.1,0.1"/>
			<path class="st4" d="M36,24.8C36.1,24.8,36.1,24.8,36,24.8"/>
			<path class="st4" d="M43.2,19.3C43.2,19.4,43.2,19.4,43.2,19.3"/>
			<path class="st4" d="M37.9,19.3C37.9,19.3,38,19.4,37.9,19.3"/>
			<path class="st4" d="M61.8,27.9C61.8,27.9,61.9,28,61.8,27.9"/>
			<path class="st4" d="M51.4,19.2C51.4,19.3,51.4,19.3,51.4,19.2"/>
			<path class="st4" d="M22.9,17.2C22.8,17.2,22.8,17.2,22.9,17.2"/>
			<path class="st4" d="M62.8,17.2C62.7,17.2,62.7,17.2,62.8,17.2"/>
			<path class="st4" d="M23.8,21.7C23.7,21.7,23.7,21.7,23.8,21.7"/>
			<path class="st4" d="M30.9,19.1C30.9,19.2,30.9,19.2,30.9,19.1C30.8,19.2,30.9,19.2,30.9,19.1"/>
			<path class="st4" d="M26.9,19.1C26.9,19.2,26.9,19.2,26.9,19.1"/>
			<path class="st4" d="M18.9,19.1L18.9,19.1C18.9,19.1,18.9,19.2,18.9,19.1"/>
			<path class="st4" d="M49.6,19C49.5,19.1,49.5,19.1,49.6,19C49.5,19.1,49.5,19.1,49.6,19"/>
			<path class="st4" d="M20.5,21.4C20.6,21.4,20.6,21.4,20.5,21.4"/>
			<path class="st4" d="M30.6,18.9L30.6,18.9C30.6,19,30.5,19,30.6,18.9"/>
			<path class="st4" d="M30.9,18.8L30.9,18.8C30.8,18.8,30.8,18.8,30.9,18.8"/>
			<path class="st4" d="M34.1,18.7L34.1,18.7C34.1,18.8,34.1,18.8,34.1,18.7"/>
			<path class="st4" d="M44,17.5C44,17.6,44,17.6,44,17.5"/>
			<path class="st4" d="M23.6,18.6L23.6,18.6C23.6,18.7,23.6,18.7,23.6,18.6"/>
			<path class="st4" d="M24.3,17.5C24.3,17.5,24.2,17.5,24.3,17.5"/>
			<path class="st4" d="M45,34C45.1,34,45.1,33.9,45,34"/>
			<path class="st4" d="M29,20.4C29,20.4,29,20.5,29,20.4"/>
			<path class="st4" d="M29,38.3C29,38.4,29,38.4,29,38.3"/>
			<path class="st4" d="M63.8,38.9C63.8,38.9,63.8,39,63.8,38.9C63.8,39,63.8,39,63.8,38.9"/>
			<path class="st4" d="M61.7,20.2C61.6,20.2,61.6,20.2,61.7,20.2"/>
			<path class="st4" d="M22,24C22,24.1,22,24.1,22,24"/>
			<path class="st4" d="M35.5,19.9L35.5,19.9C35.5,20,35.5,20,35.5,19.9"/>
			<path class="st4" d="M22,19.9C22,20,22,20,22,19.9"/>
			<path class="st4" d="M18.1,19.9C18.1,19.9,18,19.9,18.1,19.9C18,19.9,18,19.9,18.1,19.9"/>
			<path class="st4" d="M51.8,24.4C51.8,24.4,51.8,24.5,51.8,24.4C51.8,24.5,51.8,24.5,51.8,24.4"/>
			<path class="st4" d="M45,19.7C45.1,19.7,45.1,19.7,45,19.7"/>
			<path class="st4" d="M33,19C33,19.1,33,19.1,33,19"/>
		</g>
	</g>
</g>
<g id="Capa_1_00000003103342389694473690000008897099285109071261_">
	<g id="Capa_1-2">
		<path class="st5" d="M61.2,50.8c-2.9-0.3-5.7-1-8.6-1c-2.8,0-5.3,0.6-8,0.9c0,0-0.1-0.1,0-0.1c3.6-1.6,3.9-4.7,3.9-8.2l0-8.6
			c0,0,0,0,0,0c-5.7-0.6-11.1-0.3-16.5-0.3c0,0,0,0,0,0c-1,2.9-0.9,11.1,0.3,13.4c0.6,1.2,1.9,2.5,3.4,4c0,0,0,0.1,0,0.1
			c-5.7-1.2-11.4-1.5-17.1,0v-0.6c0.3-0.3,0.6-0.3,1.3-0.6c1.9-1,2.9-2.2,2.9-4.1V20.8c0-2.5-1.5-4.4-4-5.4c0,0,0-0.1,0-0.1
			c3.1-0.6,5.6,0.7,8.5,0.7c2.8,0,5.2-0.6,8.3-0.9c0,0,0.1,0.1,0,0.1c-3.2,1.3-3.5,4.1-3.9,6.9c0,0,0,0,0,0V31c0,0,0,0,0,0l17.1,0
			c0,0,0,0,0,0c0-4.1,0.3-7.9-0.6-12.1c-0.6-1.9-1.9-2.8-4-3.8c0,0,0-0.1,0-0.1c3.4-0.6,6.3,1,9.1,0.7c2.8,0,5.6-0.6,8.3-0.9
			c0,0,0.1,0.1,0,0.1c-3.6,1.6-3.9,5.1-3.9,8.2v18.8c0,3.2,0.6,6.7,4.5,8C61.7,50.2,61.4,50.5,61.2,50.8L61.2,50.8z"/>
	</g>
</g>
</svg>
